# Blender v3.0.0 OBJ File: ''
# www.blender.org
mtllib pancakes.mtl
o Cylinder
v 1.241310 -1.337064 -4.397819
v 1.238787 -0.954706 -4.395768
v 1.904858 -1.184382 -4.239115
v 1.901274 -0.808313 -4.236428
v 2.500715 -1.093218 -3.927372
v 2.496625 -0.714884 -3.924129
v 2.990127 -1.097902 -3.462021
v 2.986079 -0.708893 -3.458303
v 3.334071 -1.151136 -2.840798
v 3.329969 -0.754179 -2.836650
v 3.506957 -1.071086 -2.067997
v 3.503423 -0.675627 -2.064424
v 3.509720 -0.859762 -1.179972
v 3.506924 -0.466248 -1.177145
v 3.362576 -0.578847 -0.231401
v 3.360545 -0.187350 -0.229348
v 3.096689 -0.306382 0.715465
v 3.095429 0.083085 0.716739
v 2.748429 -0.121767 1.597790
v 2.747925 0.265706 1.598300
v 2.349313 -0.079895 2.363331
v 2.349313 0.306250 2.363331
v 1.875799 -0.079895 3.021985
v 1.875799 0.306250 3.021985
v 1.330200 -0.079895 3.564506
v 1.330200 0.306250 3.564506
v 0.733481 -0.079895 3.970044
v 0.733481 0.306250 3.970044
v 0.108576 -0.079895 4.223017
v 0.108576 0.306250 4.223017
v -0.521794 -0.087089 4.311803
v -0.521703 0.299564 4.311936
v -1.138918 -0.131904 4.224887
v -1.138662 0.255667 4.225263
v -1.721649 -0.226924 3.961837
v -1.721199 0.161723 3.962497
v -2.249131 -0.377061 3.530500
v -2.248458 0.012830 3.531488
v -2.700694 -0.574325 2.948038
v -2.699768 -0.183024 2.949399
v -3.055380 -0.791062 2.242133
v -3.054173 -0.398197 2.243906
v -3.291880 -0.976181 1.451195
v -3.290371 -0.581633 1.453413
v -3.389288 -1.056768 0.622984
v -3.387517 -0.660763 0.625585
v -3.333211 -0.970428 -0.195027
v -3.331714 -0.575947 -0.192827
v -3.132176 -0.755959 -0.980761
v -3.131018 -0.363360 -0.979058
v -2.806388 -0.491086 -1.722361
v -2.805567 -0.100367 -1.721155
v -2.385083 -0.316325 -2.408406
v -2.384395 0.075284 -2.407721
v -1.907045 -0.472868 -3.023877
v -1.905905 -0.072387 -3.023808
v -1.382887 -0.847930 -3.554759
v -1.381406 -0.438295 -3.554940
v -0.792206 -1.237199 -3.973642
v -0.790829 -0.822316 -3.973481
v -0.142076 -1.471473 -4.260178
v -0.141470 -1.060479 -4.259521
v 0.546945 -1.471458 -4.403897
v 0.545907 -1.076164 -4.402539
vt 1.000000 0.500000
vt 1.000000 1.000000
vt 0.968750 1.000000
vt 0.968750 0.500000
vt 0.937500 1.000000
vt 0.937500 0.500000
vt 0.906250 1.000000
vt 0.906250 0.500000
vt 0.875000 1.000000
vt 0.875000 0.500000
vt 0.843750 1.000000
vt 0.843750 0.500000
vt 0.812500 1.000000
vt 0.812500 0.500000
vt 0.781250 1.000000
vt 0.781250 0.500000
vt 0.750000 1.000000
vt 0.750000 0.500000
vt 0.718750 1.000000
vt 0.718750 0.500000
vt 0.687500 1.000000
vt 0.687500 0.500000
vt 0.656250 1.000000
vt 0.656250 0.500000
vt 0.625000 1.000000
vt 0.625000 0.500000
vt 0.593750 1.000000
vt 0.593750 0.500000
vt 0.562500 1.000000
vt 0.562500 0.500000
vt 0.531250 1.000000
vt 0.531250 0.500000
vt 0.500000 1.000000
vt 0.500000 0.500000
vt 0.468750 1.000000
vt 0.468750 0.500000
vt 0.437500 1.000000
vt 0.437500 0.500000
vt 0.406250 1.000000
vt 0.406250 0.500000
vt 0.375000 1.000000
vt 0.375000 0.500000
vt 0.343750 1.000000
vt 0.343750 0.500000
vt 0.312500 1.000000
vt 0.312500 0.500000
vt 0.281250 1.000000
vt 0.281250 0.500000
vt 0.250000 1.000000
vt 0.250000 0.500000
vt 0.218750 1.000000
vt 0.218750 0.500000
vt 0.187500 1.000000
vt 0.187500 0.500000
vt 0.156250 1.000000
vt 0.156250 0.500000
vt 0.125000 1.000000
vt 0.125000 0.500000
vt 0.093750 1.000000
vt 0.093750 0.500000
vt 0.062500 1.000000
vt 0.062500 0.500000
vt 0.296822 0.485388
vt 0.250000 0.490000
vt 0.203178 0.485388
vt 0.158156 0.471731
vt 0.116663 0.449553
vt 0.080294 0.419706
vt 0.050447 0.383337
vt 0.028269 0.341844
vt 0.014612 0.296822
vt 0.010000 0.250000
vt 0.014612 0.203178
vt 0.028269 0.158156
vt 0.050447 0.116663
vt 0.080294 0.080294
vt 0.116663 0.050447
vt 0.158156 0.028269
vt 0.203178 0.014612
vt 0.250000 0.010000
vt 0.296822 0.014612
vt 0.341844 0.028269
vt 0.383337 0.050447
vt 0.419706 0.080294
vt 0.449553 0.116663
vt 0.471731 0.158156
vt 0.485388 0.203178
vt 0.490000 0.250000
vt 0.485388 0.296822
vt 0.471731 0.341844
vt 0.449553 0.383337
vt 0.419706 0.419706
vt 0.383337 0.449553
vt 0.341844 0.471731
vt 0.031250 1.000000
vt 0.031250 0.500000
vt 0.000000 1.000000
vt 0.000000 0.500000
vt 0.750000 0.490000
vt 0.796822 0.485388
vt 0.841844 0.471731
vt 0.883337 0.449553
vt 0.919706 0.419706
vt 0.949553 0.383337
vt 0.971731 0.341844
vt 0.985388 0.296822
vt 0.990000 0.250000
vt 0.985388 0.203178
vt 0.971731 0.158156
vt 0.949553 0.116663
vt 0.919706 0.080294
vt 0.883337 0.050447
vt 0.841844 0.028269
vt 0.796822 0.014612
vt 0.750000 0.010000
vt 0.703178 0.014612
vt 0.658156 0.028269
vt 0.616663 0.050447
vt 0.580294 0.080294
vt 0.550447 0.116663
vt 0.528269 0.158156
vt 0.514612 0.203178
vt 0.510000 0.250000
vt 0.514612 0.296822
vt 0.528269 0.341844
vt 0.550447 0.383337
vt 0.580294 0.419706
vt 0.616663 0.449553
vt 0.658156 0.471731
vt 0.703178 0.485388
vn 0.2315 0.0079 -0.9728
vn 0.4626 0.0117 -0.8865
vn 0.6892 0.0139 -0.7245
vn 0.8753 0.0139 -0.4833
vn 0.9755 0.0115 -0.2198
vn 1.0000 0.0081 -0.0054
vn 0.9884 0.0051 0.1515
vn 0.9630 0.0029 0.2693
vn 0.9303 0.0013 0.3667
vn 0.8868 0.0003 0.4622
vn 0.8120 0.0000 0.5837
vn 0.7051 0.0000 0.7091
vn 0.5621 0.0000 0.8271
vn 0.3752 0.0000 0.9269
vn 0.1396 -0.0002 0.9902
vn -0.1392 -0.0006 0.9903
vn -0.4112 -0.0008 0.9115
vn -0.6328 -0.0007 0.7743
vn -0.7903 -0.0002 0.6128
vn -0.8936 0.0006 0.4488
vn -0.9582 0.0019 0.2860
vn -0.9932 0.0034 0.1164
vn -0.9977 0.0045 -0.0677
vn -0.9691 0.0045 -0.2465
vn -0.9162 0.0038 -0.4008
vn -0.8526 0.0029 -0.5226
vn -0.7895 0.0024 -0.6138
vn -0.7108 0.0022 -0.7034
vn -0.5775 0.0020 -0.8164
vn -0.4026 0.0019 -0.9154
vn -0.0282 0.9923 -0.1205
vn -0.2039 0.0023 -0.9790
vn 0.0084 0.0044 -1.0000
vn 0.0294 -0.9922 0.1215
usemtl Material.002
s off
f 1/1/1 2/2/1 4/3/1 3/4/1
f 3/4/2 4/3/2 6/5/2 5/6/2
f 5/6/3 6/5/3 8/7/3 7/8/3
f 7/8/4 8/7/4 10/9/4 9/10/4
f 9/10/5 10/9/5 12/11/5 11/12/5
f 11/12/6 12/11/6 14/13/6 13/14/6
f 13/14/7 14/13/7 16/15/7 15/16/7
f 15/16/8 16/15/8 18/17/8 17/18/8
f 17/18/9 18/17/9 20/19/9 19/20/9
f 19/20/10 20/19/10 22/21/10 21/22/10
f 21/22/11 22/21/11 24/23/11 23/24/11
f 23/24/12 24/23/12 26/25/12 25/26/12
f 25/26/13 26/25/13 28/27/13 27/28/13
f 27/28/14 28/27/14 30/29/14 29/30/14
f 29/30/15 30/29/15 32/31/15 31/32/15
f 31/32/16 32/31/16 34/33/16 33/34/16
f 33/34/17 34/33/17 36/35/17 35/36/17
f 35/36/18 36/35/18 38/37/18 37/38/18
f 37/38/19 38/37/19 40/39/19 39/40/19
f 39/40/20 40/39/20 42/41/20 41/42/20
f 41/42/21 42/41/21 44/43/21 43/44/21
f 43/44/22 44/43/22 46/45/22 45/46/22
f 45/46/23 46/45/23 48/47/23 47/48/23
f 47/48/24 48/47/24 50/49/24 49/50/24
f 49/50/25 50/49/25 52/51/25 51/52/25
f 51/52/26 52/51/26 54/53/26 53/54/26
f 53/54/27 54/53/27 56/55/27 55/56/27
f 55/56/28 56/55/28 58/57/28 57/58/28
f 57/58/29 58/57/29 60/59/29 59/60/29
f 59/60/30 60/59/30 62/61/30 61/62/30
f 4/63/31 2/64/31 64/65/31 62/66/31 60/67/31 58/68/31 56/69/31 54/70/31 52/71/31 50/72/31 48/73/31 46/74/31 44/75/31 42/76/31 40/77/31 38/78/31 36/79/31 34/80/31 32/81/31 30/82/31 28/83/31 26/84/31 24/85/31 22/86/31 20/87/31 18/88/31 16/89/31 14/90/31 12/91/31 10/92/31 8/93/31 6/94/31
f 61/62/32 62/61/32 64/95/32 63/96/32
f 63/96/33 64/95/33 2/97/33 1/98/33
f 1/99/34 3/100/34 5/101/34 7/102/34 9/103/34 11/104/34 13/105/34 15/106/34 17/107/34 19/108/34 21/109/34 23/110/34 25/111/34 27/112/34 29/113/34 31/114/34 33/115/34 35/116/34 37/117/34 39/118/34 41/119/34 43/120/34 45/121/34 47/122/34 49/123/34 51/124/34 53/125/34 55/126/34 57/127/34 59/128/34 61/129/34 63/130/34
o Cylinder.001
v 0.210641 -1.737704 -4.735590
v 0.211222 -1.352589 -4.735168
v 0.819704 -1.700813 -4.684784
v 0.820699 -1.315719 -4.684407
v 1.421515 -1.679714 -4.482355
v 1.421874 -1.292817 -4.481083
v 1.987598 -1.671692 -4.126297
v 1.986436 -1.279861 -4.123192
v 2.480613 -1.640498 -3.606087
v 2.477825 -1.242378 -3.600994
v 2.853132 -1.490335 -2.902140
v 2.850739 -1.093774 -2.897750
v 3.087503 -1.246164 -2.043966
v 3.085529 -0.852650 -2.040514
v 3.189587 -0.965249 -1.089493
v 3.188154 -0.573752 -1.086986
v 3.176494 -0.692784 -0.106092
v 3.175605 -0.303317 -0.104536
v 3.067187 -0.508169 0.836159
v 3.066831 -0.120696 0.836781
v 2.878665 -0.466297 1.678658
v 2.878665 -0.080152 1.678658
v 2.597700 -0.528736 2.455876
v 2.596613 -0.132850 2.452936
v 2.263100 -0.864241 3.244594
v 2.258649 -0.503636 3.240888
v 1.810581 -1.093176 3.844682
v 1.802200 -0.704754 3.830747
v 1.209866 -1.190139 4.156862
v 1.203989 -0.807693 4.147717
v 0.539230 -1.245202 4.269325
v 0.538922 -0.845666 4.267533
v -0.122893 -1.368909 4.278705
v -0.119816 -0.960274 4.281404
v -0.764769 -1.549194 4.164863
v -0.761997 -1.143831 4.167291
v -1.372942 -1.602238 3.894974
v -1.371652 -1.209381 3.896094
v -1.926607 -1.547722 3.477144
v -1.926504 -1.165225 3.477217
v -2.410703 -1.452953 2.921898
v -2.410779 -1.073182 2.921808
v -2.812683 -1.405112 2.245097
v -2.811606 -1.017902 2.246014
v -3.114562 -1.443170 1.474748
v -3.112181 -1.047165 1.476807
v -3.271022 -1.356830 0.669885
v -3.269009 -0.962349 0.671625
v -3.276004 -1.158447 -0.144788
v -3.273999 -0.768166 -0.143970
v -3.118196 -1.070029 -0.985514
v -3.116485 -0.682458 -0.985277
v -2.826032 -1.132839 -1.827298
v -2.825869 -0.741338 -1.826130
v -2.440990 -1.308157 -2.628474
v -2.442789 -0.910330 -2.625830
v -1.998062 -1.538738 -3.346366
v -2.001052 -1.136635 -3.342702
v -1.498271 -1.731686 -3.938133
v -1.501403 -1.329713 -3.934180
v -0.958530 -1.798946 -4.367713
v -0.960425 -1.404346 -4.365108
v -0.386402 -1.781732 -4.631726
v -0.386910 -1.393395 -4.630465
vt 1.000000 0.500000
vt 1.000000 1.000000
vt 0.968750 1.000000
vt 0.968750 0.500000
vt 0.937500 1.000000
vt 0.937500 0.500000
vt 0.906250 1.000000
vt 0.906250 0.500000
vt 0.875000 1.000000
vt 0.875000 0.500000
vt 0.843750 1.000000
vt 0.843750 0.500000
vt 0.812500 1.000000
vt 0.812500 0.500000
vt 0.781250 1.000000
vt 0.781250 0.500000
vt 0.750000 1.000000
vt 0.750000 0.500000
vt 0.718750 1.000000
vt 0.718750 0.500000
vt 0.687500 1.000000
vt 0.687500 0.500000
vt 0.656250 1.000000
vt 0.656250 0.500000
vt 0.625000 1.000000
vt 0.625000 0.500000
vt 0.593750 1.000000
vt 0.593750 0.500000
vt 0.562500 1.000000
vt 0.562500 0.500000
vt 0.531250 1.000000
vt 0.531250 0.500000
vt 0.500000 1.000000
vt 0.500000 0.500000
vt 0.468750 1.000000
vt 0.468750 0.500000
vt 0.437500 1.000000
vt 0.437500 0.500000
vt 0.406250 1.000000
vt 0.406250 0.500000
vt 0.375000 1.000000
vt 0.375000 0.500000
vt 0.343750 1.000000
vt 0.343750 0.500000
vt 0.312500 1.000000
vt 0.312500 0.500000
vt 0.281250 1.000000
vt 0.281250 0.500000
vt 0.250000 1.000000
vt 0.250000 0.500000
vt 0.218750 1.000000
vt 0.218750 0.500000
vt 0.187500 1.000000
vt 0.187500 0.500000
vt 0.156250 1.000000
vt 0.156250 0.500000
vt 0.125000 1.000000
vt 0.125000 0.500000
vt 0.093750 1.000000
vt 0.093750 0.500000
vt 0.062500 1.000000
vt 0.062500 0.500000
vt 0.296822 0.485388
vt 0.250000 0.490000
vt 0.203178 0.485388
vt 0.158156 0.471731
vt 0.116663 0.449553
vt 0.080294 0.419706
vt 0.050447 0.383337
vt 0.028269 0.341844
vt 0.014612 0.296822
vt 0.010000 0.250000
vt 0.014612 0.203178
vt 0.028269 0.158156
vt 0.050447 0.116663
vt 0.080294 0.080294
vt 0.116663 0.050447
vt 0.158156 0.028269
vt 0.203178 0.014612
vt 0.250000 0.010000
vt 0.296822 0.014612
vt 0.341844 0.028269
vt 0.383337 0.050447
vt 0.419706 0.080294
vt 0.449553 0.116663
vt 0.471731 0.158156
vt 0.485388 0.203178
vt 0.490000 0.250000
vt 0.485388 0.296822
vt 0.471731 0.341844
vt 0.449553 0.383337
vt 0.419706 0.419706
vt 0.383337 0.449553
vt 0.341844 0.471731
vt 0.031250 1.000000
vt 0.031250 0.500000
vt 0.000000 1.000000
vt 0.000000 0.500000
vt 0.750000 0.490000
vt 0.796822 0.485388
vt 0.841844 0.471731
vt 0.883337 0.449553
vt 0.919706 0.419706
vt 0.949553 0.383337
vt 0.971731 0.341844
vt 0.985388 0.296822
vt 0.990000 0.250000
vt 0.985388 0.203178
vt 0.971731 0.158156
vt 0.949553 0.116663
vt 0.919706 0.080294
vt 0.883337 0.050447
vt 0.841844 0.028269
vt 0.796822 0.014612
vt 0.750000 0.010000
vt 0.703178 0.014612
vt 0.658156 0.028269
vt 0.616663 0.050447
vt 0.580294 0.080294
vt 0.550447 0.116663
vt 0.528269 0.158156
vt 0.514612 0.203178
vt 0.510000 0.250000
vt 0.514612 0.296822
vt 0.528269 0.341844
vt 0.550447 0.383337
vt 0.580294 0.419706
vt 0.616663 0.449553
vt 0.658156 0.471731
vt 0.703178 0.485388
vn 0.0830 0.0009 -0.9965
vn 0.3195 0.0015 -0.9476
vn 0.5338 0.0053 -0.8456
vn 0.7266 0.0108 -0.6869
vn 0.8826 0.0114 -0.4700
vn 0.9640 0.0080 -0.2659
vn 0.9941 0.0051 -0.1082
vn 0.9999 0.0029 0.0122
vn 0.9934 0.0013 0.1148
vn 0.9759 0.0003 0.2182
vn 0.9400 0.0026 0.3413
vn 0.9181 0.0102 0.3962
vn 0.7895 0.0280 0.6132
vn 0.4598 0.0351 0.8873
vn 0.1703 0.0151 0.9853
vn 0.0178 -0.0012 0.9998
vn -0.1734 -0.0050 0.9848
vn -0.4059 -0.0020 0.9139
vn -0.6025 -0.0001 0.7982
vn -0.7537 0.0000 0.6572
vn -0.8599 0.0006 0.5104
vn -0.9313 0.0027 0.3643
vn -0.9815 0.0045 0.1915
vn -1.0000 0.0051 0.0073
vn -0.9830 0.0049 -0.1838
vn -0.9449 0.0029 -0.3275
vn -0.9016 0.0002 -0.4326
vn -0.8513 -0.0010 -0.5246
vn -0.7639 0.0003 -0.6453
vn -0.6227 0.0025 -0.7825
vn -0.0751 0.9960 -0.0478
vn -0.4195 0.0032 -0.9077
vn -0.1721 0.0022 -0.9851
vn 0.0758 -0.9960 0.0479
usemtl Material.002
s off
f 65/131/35 66/132/35 68/133/35 67/134/35
f 67/134/36 68/133/36 70/135/36 69/136/36
f 69/136/37 70/135/37 72/137/37 71/138/37
f 71/138/38 72/137/38 74/139/38 73/140/38
f 73/140/39 74/139/39 76/141/39 75/142/39
f 75/142/40 76/141/40 78/143/40 77/144/40
f 77/144/41 78/143/41 80/145/41 79/146/41
f 79/146/42 80/145/42 82/147/42 81/148/42
f 81/148/43 82/147/43 84/149/43 83/150/43
f 83/150/44 84/149/44 86/151/44 85/152/44
f 85/152/45 86/151/45 88/153/45 87/154/45
f 87/154/46 88/153/46 90/155/46 89/156/46
f 89/156/47 90/155/47 92/157/47 91/158/47
f 91/158/48 92/157/48 94/159/48 93/160/48
f 93/160/49 94/159/49 96/161/49 95/162/49
f 95/162/50 96/161/50 98/163/50 97/164/50
f 97/164/51 98/163/51 100/165/51 99/166/51
f 99/166/52 100/165/52 102/167/52 101/168/52
f 101/168/53 102/167/53 104/169/53 103/170/53
f 103/170/54 104/169/54 106/171/54 105/172/54
f 105/172/55 106/171/55 108/173/55 107/174/55
f 107/174/56 108/173/56 110/175/56 109/176/56
f 109/176/57 110/175/57 112/177/57 111/178/57
f 111/178/58 112/177/58 114/179/58 113/180/58
f 113/180/59 114/179/59 116/181/59 115/182/59
f 115/182/60 116/181/60 118/183/60 117/184/60
f 117/184/61 118/183/61 120/185/61 119/186/61
f 119/186/62 120/185/62 122/187/62 121/188/62
f 121/188/63 122/187/63 124/189/63 123/190/63
f 123/190/64 124/189/64 126/191/64 125/192/64
f 68/193/65 66/194/65 128/195/65 126/196/65 124/197/65 122/198/65 120/199/65 118/200/65 116/201/65 114/202/65 112/203/65 110/204/65 108/205/65 106/206/65 104/207/65 102/208/65 100/209/65 98/210/65 96/211/65 94/212/65 92/213/65 90/214/65 88/215/65 86/216/65 84/217/65 82/218/65 80/219/65 78/220/65 76/221/65 74/222/65 72/223/65 70/224/65
f 125/192/66 126/191/66 128/225/66 127/226/66
f 127/226/67 128/225/67 66/227/67 65/228/67
f 65/229/68 67/230/68 69/231/68 71/232/68 73/233/68 75/234/68 77/235/68 79/236/68 81/237/68 83/238/68 85/239/68 87/240/68 89/241/68 91/242/68 93/243/68 95/244/68 97/245/68 99/246/68 101/247/68 103/248/68 105/249/68 107/250/68 109/251/68 111/252/68 113/253/68 115/254/68 117/255/68 119/256/68 121/257/68 123/258/68 125/259/68 127/260/68
o Cylinder.002
v 0.186082 -2.407562 -4.719446
v 0.187455 -2.016098 -4.719544
v 0.787636 -2.434824 -4.663082
v 0.789869 -2.039581 -4.663554
v 1.382787 -2.484963 -4.453480
v 1.384109 -2.089627 -4.452955
v 1.945016 -2.531164 -4.091238
v 1.944664 -2.131511 -4.088874
v 2.440101 -2.496217 -3.570382
v 2.438747 -2.084330 -3.566586
v 2.825017 -2.231080 -2.877028
v 2.824508 -1.816586 -2.874320
v 3.080648 -1.797626 -2.035786
v 3.080064 -1.393520 -2.033163
v 3.193745 -1.514765 -1.075053
v 3.192386 -1.124624 -1.072290
v 3.183292 -1.290840 -0.082486
v 3.182148 -0.896691 -0.081814
v 3.071533 -1.061130 0.851249
v 3.070866 -0.667937 0.850791
v 2.879576 -0.956092 1.681821
v 2.879446 -0.567558 1.681370
v 2.597700 -1.001780 2.455876
v 2.596613 -0.605895 2.452936
v 2.263100 -1.337286 3.244594
v 2.258649 -0.976681 3.240888
v 1.810581 -1.566221 3.844682
v 1.802200 -1.177799 3.830747
v 1.209866 -1.663184 4.156862
v 1.203989 -1.280737 4.147717
v 0.539230 -1.718246 4.269325
v 0.538922 -1.318711 4.267533
v -0.122893 -1.841953 4.278705
v -0.119816 -1.433318 4.281404
v -0.762340 -2.036742 4.165314
v -0.759783 -1.630089 4.167702
v -1.353387 -2.192023 3.898606
v -1.352377 -1.797497 3.899674
v -1.883141 -2.280253 3.485217
v -1.883805 -1.893180 3.485147
v -2.353998 -2.264518 2.932429
v -2.356097 -1.872669 2.931963
v -2.770741 -2.128545 2.252886
v -2.771477 -1.730510 2.253467
v -3.101042 -1.996928 1.477259
v -3.099353 -1.596792 1.479189
v -3.292951 -1.903264 0.722115
v -3.291445 -1.510482 0.725065
v -3.351456 -1.884008 0.034925
v -3.347906 -1.488555 0.032062
v -3.226087 -1.904155 -0.728536
v -3.220373 -1.503189 -0.737833
v -2.899276 -1.851010 -1.652844
v -2.897329 -1.453540 -1.655925
v -2.457008 -1.834806 -2.590324
v -2.459185 -1.438247 -2.586779
v -1.998062 -2.011783 -3.346366
v -2.001052 -1.609680 -3.342702
v -1.498271 -2.204731 -3.938133
v -1.501403 -1.802757 -3.934180
v -0.962640 -2.304927 -4.365012
v -0.964326 -1.908646 -4.362545
v -0.400627 -2.368778 -4.622375
v -0.400715 -1.977074 -4.621389
vt 1.000000 0.500000
vt 1.000000 1.000000
vt 0.968750 1.000000
vt 0.968750 0.500000
vt 0.937500 1.000000
vt 0.937500 0.500000
vt 0.906250 1.000000
vt 0.906250 0.500000
vt 0.875000 1.000000
vt 0.875000 0.500000
vt 0.843750 1.000000
vt 0.843750 0.500000
vt 0.812500 1.000000
vt 0.812500 0.500000
vt 0.781250 1.000000
vt 0.781250 0.500000
vt 0.750000 1.000000
vt 0.750000 0.500000
vt 0.718750 1.000000
vt 0.718750 0.500000
vt 0.687500 1.000000
vt 0.687500 0.500000
vt 0.656250 1.000000
vt 0.656250 0.500000
vt 0.625000 1.000000
vt 0.625000 0.500000
vt 0.593750 1.000000
vt 0.593750 0.500000
vt 0.562500 1.000000
vt 0.562500 0.500000
vt 0.531250 1.000000
vt 0.531250 0.500000
vt 0.500000 1.000000
vt 0.500000 0.500000
vt 0.468750 1.000000
vt 0.468750 0.500000
vt 0.437500 1.000000
vt 0.437500 0.500000
vt 0.406250 1.000000
vt 0.406250 0.500000
vt 0.375000 1.000000
vt 0.375000 0.500000
vt 0.343750 1.000000
vt 0.343750 0.500000
vt 0.312500 1.000000
vt 0.312500 0.500000
vt 0.281250 1.000000
vt 0.281250 0.500000
vt 0.250000 1.000000
vt 0.250000 0.500000
vt 0.218750 1.000000
vt 0.218750 0.500000
vt 0.187500 1.000000
vt 0.187500 0.500000
vt 0.156250 1.000000
vt 0.156250 0.500000
vt 0.125000 1.000000
vt 0.125000 0.500000
vt 0.093750 1.000000
vt 0.093750 0.500000
vt 0.062500 1.000000
vt 0.062500 0.500000
vt 0.296822 0.485388
vt 0.250000 0.490000
vt 0.203178 0.485388
vt 0.158156 0.471731
vt 0.116663 0.449553
vt 0.080294 0.419706
vt 0.050447 0.383337
vt 0.028269 0.341844
vt 0.014612 0.296822
vt 0.010000 0.250000
vt 0.014612 0.203178
vt 0.028269 0.158156
vt 0.050447 0.116663
vt 0.080294 0.080294
vt 0.116663 0.050447
vt 0.158156 0.028269
vt 0.203178 0.014612
vt 0.250000 0.010000
vt 0.296822 0.014612
vt 0.341844 0.028269
vt 0.383337 0.050447
vt 0.419706 0.080294
vt 0.449553 0.116663
vt 0.471731 0.158156
vt 0.485388 0.203178
vt 0.490000 0.250000
vt 0.485388 0.296822
vt 0.471731 0.341844
vt 0.449553 0.383337
vt 0.419706 0.419706
vt 0.383337 0.449553
vt 0.341844 0.471731
vt 0.031250 1.000000
vt 0.031250 0.500000
vt 0.000000 1.000000
vt 0.000000 0.500000
vt 0.750000 0.490000
vt 0.796822 0.485388
vt 0.841844 0.471731
vt 0.883337 0.449553
vt 0.919706 0.419706
vt 0.949553 0.383337
vt 0.971731 0.341844
vt 0.985388 0.296822
vt 0.990000 0.250000
vt 0.985388 0.203178
vt 0.971731 0.158156
vt 0.949553 0.116663
vt 0.919706 0.080294
vt 0.883337 0.050447
vt 0.841844 0.028269
vt 0.796822 0.014612
vt 0.750000 0.010000
vt 0.703178 0.014612
vt 0.658156 0.028269
vt 0.616663 0.050447
vt 0.580294 0.080294
vt 0.550447 0.116663
vt 0.528269 0.158156
vt 0.514612 0.203178
vt 0.510000 0.250000
vt 0.514612 0.296822
vt 0.528269 0.341844
vt 0.550447 0.383337
vt 0.580294 0.419706
vt 0.616663 0.449553
vt 0.658156 0.471731
vt 0.703178 0.485388
vn 0.0929 -0.0011 -0.9957
vn 0.3330 -0.0014 -0.9429
vn 0.5433 0.0024 -0.8395
vn 0.7253 0.0067 -0.6883
vn 0.8730 0.0058 -0.4878
vn 0.9564 0.0032 -0.2922
vn 0.9931 0.0032 -0.1174
vn 0.9999 0.0031 0.0097
vn 0.9930 0.0023 0.1181
vn 0.9744 0.0013 0.2247
vn 0.9392 0.0029 0.3433
vn 0.9181 0.0102 0.3962
vn 0.7895 0.0280 0.6132
vn 0.4598 0.0351 0.8873
vn 0.1703 0.0151 0.9853
vn 0.0178 -0.0012 0.9998
vn -0.1733 -0.0049 0.9849
vn -0.4112 -0.0021 0.9115
vn -0.6150 -0.0007 0.7885
vn -0.7609 -0.0023 0.6488
vn -0.8529 -0.0031 0.5220
vn -0.9205 -0.0001 0.3909
vn -0.9691 0.0024 0.2468
vn -0.9965 0.0064 0.0832
vn -0.9866 0.0090 -0.1629
vn -0.9431 0.0039 -0.3324
vn -0.9046 -0.0000 -0.4263
vn -0.8551 -0.0009 -0.5185
vn -0.7639 0.0003 -0.6453
vn -0.6231 0.0025 -0.7821
vn -0.0830 0.9946 -0.0630
vn -0.4166 0.0030 -0.9091
vn -0.1638 0.0014 -0.9865
vn 0.0835 -0.9945 0.0637
usemtl Material.002
s off
f 129/261/69 130/262/69 132/263/69 131/264/69
f 131/264/70 132/263/70 134/265/70 133/266/70
f 133/266/71 134/265/71 136/267/71 135/268/71
f 135/268/72 136/267/72 138/269/72 137/270/72
f 137/270/73 138/269/73 140/271/73 139/272/73
f 139/272/74 140/271/74 142/273/74 141/274/74
f 141/274/75 142/273/75 144/275/75 143/276/75
f 143/276/76 144/275/76 146/277/76 145/278/76
f 145/278/77 146/277/77 148/279/77 147/280/77
f 147/280/78 148/279/78 150/281/78 149/282/78
f 149/282/79 150/281/79 152/283/79 151/284/79
f 151/284/80 152/283/80 154/285/80 153/286/80
f 153/286/81 154/285/81 156/287/81 155/288/81
f 155/288/82 156/287/82 158/289/82 157/290/82
f 157/290/83 158/289/83 160/291/83 159/292/83
f 159/292/84 160/291/84 162/293/84 161/294/84
f 161/294/85 162/293/85 164/295/85 163/296/85
f 163/296/86 164/295/86 166/297/86 165/298/86
f 165/298/87 166/297/87 168/299/87 167/300/87
f 167/300/88 168/299/88 170/301/88 169/302/88
f 169/302/89 170/301/89 172/303/89 171/304/89
f 171/304/90 172/303/90 174/305/90 173/306/90
f 173/306/91 174/305/91 176/307/91 175/308/91
f 175/308/92 176/307/92 178/309/92 177/310/92
f 177/310/93 178/309/93 180/311/93 179/312/93
f 179/312/94 180/311/94 182/313/94 181/314/94
f 181/314/95 182/313/95 184/315/95 183/316/95
f 183/316/96 184/315/96 186/317/96 185/318/96
f 185/318/97 186/317/97 188/319/97 187/320/97
f 187/320/98 188/319/98 190/321/98 189/322/98
f 132/323/99 130/324/99 192/325/99 190/326/99 188/327/99 186/328/99 184/329/99 182/330/99 180/331/99 178/332/99 176/333/99 174/334/99 172/335/99 170/336/99 168/337/99 166/338/99 164/339/99 162/340/99 160/341/99 158/342/99 156/343/99 154/344/99 152/345/99 150/346/99 148/347/99 146/348/99 144/349/99 142/350/99 140/351/99 138/352/99 136/353/99 134/354/99
f 189/322/100 190/321/100 192/355/100 191/356/100
f 191/356/101 192/355/101 130/357/101 129/358/101
f 129/359/102 131/360/102 133/361/102 135/362/102 137/363/102 139/364/102 141/365/102 143/366/102 145/367/102 147/368/102 149/369/102 151/370/102 153/371/102 155/372/102 157/373/102 159/374/102 161/375/102 163/376/102 165/377/102 167/378/102 169/379/102 171/380/102 173/381/102 175/382/102 177/383/102 179/384/102 181/385/102 183/386/102 185/387/102 187/388/102 189/389/102 191/390/102
