# Blender v3.0.0 OBJ File: ''
# www.blender.org
mtllib room.mtl
o Cube_Cube.001
v -5.519203 -1.513589 0.273690
v -5.519203 1.513589 0.273690
v -5.519203 -1.513589 -0.273690
v -5.519203 1.513589 -0.273690
v -0.727651 -1.513589 0.273690
v -0.727651 1.513589 0.273690
v -0.727651 -1.513589 -0.273690
v -0.727651 1.513589 -0.273690
vt 0.375000 0.000000
vt 0.625000 0.000000
vt 0.625000 0.250000
vt 0.375000 0.250000
vt 0.625000 0.500000
vt 0.375000 0.500000
vt 0.625000 0.750000
vt 0.375000 0.750000
vt 0.625000 1.000000
vt 0.375000 1.000000
vt 0.125000 0.500000
vt 0.125000 0.750000
vt 0.875000 0.500000
vt 0.875000 0.750000
vn -1.0000 0.0000 0.0000
vn 0.0000 0.0000 -1.0000
vn 1.0000 0.0000 0.0000
vn 0.0000 0.0000 1.0000
vn 0.0000 -1.0000 0.0000
vn 0.0000 1.0000 0.0000
usemtl None
s off
f 1/1/1 2/2/1 4/3/1 3/4/1
f 3/4/2 4/3/2 8/5/2 7/6/2
f 7/6/3 8/5/3 6/7/3 5/8/3
f 5/8/4 6/7/4 2/9/4 1/10/4
f 3/11/5 7/6/5 5/8/5 1/12/5
f 8/5/6 4/13/6 2/14/6 6/7/6
o Cube.001_Cube.002
v -5.554050 -1.826340 5.141311
v -5.554050 -1.441535 5.141311
v -5.554050 -1.826340 -5.141311
v -5.554050 -1.441535 -5.141311
v 5.554050 -1.826340 5.141311
v 5.554050 -1.441535 5.141311
v 5.554050 -1.826340 -5.141311
v 5.554050 -1.441535 -5.141311
vt 0.375000 0.000000
vt 0.625000 0.000000
vt 0.625000 0.250000
vt 0.375000 0.250000
vt 0.625000 0.500000
vt 0.375000 0.500000
vt 0.625000 0.750000
vt 0.375000 0.750000
vt 0.625000 1.000000
vt 0.375000 1.000000
vt 0.125000 0.500000
vt 0.125000 0.750000
vt 0.875000 0.500000
vt 0.875000 0.750000
vn -1.0000 0.0000 0.0000
vn 0.0000 0.0000 -1.0000
vn 1.0000 0.0000 0.0000
vn 0.0000 0.0000 1.0000
vn 0.0000 -1.0000 0.0000
vn 0.0000 1.0000 0.0000
usemtl None
s off
f 9/15/7 10/16/7 12/17/7 11/18/7
f 11/18/8 12/17/8 16/19/8 15/20/8
f 15/20/9 16/19/9 14/21/9 13/22/9
f 13/22/10 14/21/10 10/23/10 9/24/10
f 11/25/11 15/20/11 13/22/11 9/26/11
f 16/19/12 12/27/12 10/28/12 14/21/12
o Cube.002_Cube.003
v -3.201059 -0.646679 4.553114
v -3.201059 1.005603 4.553114
v -3.748426 -0.646679 4.556664
v -3.748426 1.005603 4.556664
v -3.232138 -0.646679 -0.238338
v -3.232138 1.005603 -0.238338
v -3.779505 -0.646679 -0.234787
v -3.779505 1.005603 -0.234787
vt 0.375000 0.000000
vt 0.625000 0.000000
vt 0.625000 0.250000
vt 0.375000 0.250000
vt 0.625000 0.500000
vt 0.375000 0.500000
vt 0.625000 0.750000
vt 0.375000 0.750000
vt 0.625000 1.000000
vt 0.375000 1.000000
vt 0.125000 0.500000
vt 0.125000 0.750000
vt 0.875000 0.500000
vt 0.875000 0.750000
vn 0.0065 0.0000 1.0000
vn -1.0000 0.0000 0.0065
vn -0.0065 0.0000 -1.0000
vn 1.0000 0.0000 -0.0065
vn 0.0000 -1.0000 -0.0000
vn 0.0000 1.0000 -0.0000
usemtl None
s off
f 17/29/13 18/30/13 20/31/13 19/32/13
f 19/32/14 20/31/14 24/33/14 23/34/14
f 23/34/15 24/33/15 22/35/15 21/36/15
f 21/36/16 22/35/16 18/37/16 17/38/16
f 19/39/17 23/34/17 21/36/17 17/40/17
f 24/33/18 20/41/18 18/42/18 22/35/18
o Cube.003_Cube.004
v -0.971708 -0.566802 0.249259
v -0.971708 0.566802 0.249259
v -1.519076 -0.566802 0.252809
v -1.519076 0.566802 0.252809
v -1.002787 -0.566802 -4.542192
v -1.002787 0.566802 -4.542192
v -1.550155 -0.566802 -4.538642
v -1.550155 0.566802 -4.538642
vt 0.375000 0.000000
vt 0.625000 0.000000
vt 0.625000 0.250000
vt 0.375000 0.250000
vt 0.625000 0.500000
vt 0.375000 0.500000
vt 0.625000 0.750000
vt 0.375000 0.750000
vt 0.625000 1.000000
vt 0.375000 1.000000
vt 0.125000 0.500000
vt 0.125000 0.750000
vt 0.875000 0.500000
vt 0.875000 0.750000
vn 0.0065 0.0000 1.0000
vn -1.0000 0.0000 0.0065
vn -0.0065 0.0000 -1.0000
vn 1.0000 0.0000 -0.0065
vn 0.0000 -1.0000 -0.0000
vn 0.0000 1.0000 -0.0000
usemtl None
s off
f 25/43/19 26/44/19 28/45/19 27/46/19
f 27/46/20 28/45/20 32/47/20 31/48/20
f 31/48/21 32/47/21 30/49/21 29/50/21
f 29/50/22 30/49/22 26/51/22 25/52/22
f 27/53/23 31/48/23 29/50/23 25/54/23
f 32/47/24 28/55/24 26/56/24 30/49/24
o Cube.004_Cube.005
v -0.452566 -1.513589 3.099861
v -0.452566 1.513589 3.099861
v -0.906683 -1.513589 2.794244
v -0.906683 1.513589 2.794244
v 2.222690 -1.513589 -0.875309
v 2.222690 1.513589 -0.875309
v 1.768573 -1.513589 -1.180927
v 1.768573 1.513589 -1.180927
vt 0.375000 0.000000
vt 0.625000 0.000000
vt 0.625000 0.250000
vt 0.375000 0.250000
vt 0.625000 0.500000
vt 0.375000 0.500000
vt 0.625000 0.750000
vt 0.375000 0.750000
vt 0.625000 1.000000
vt 0.375000 1.000000
vt 0.125000 0.500000
vt 0.125000 0.750000
vt 0.875000 0.500000
vt 0.875000 0.750000
vn -0.5583 0.0000 0.8296
vn -0.8296 0.0000 -0.5583
vn 0.5583 0.0000 -0.8296
vn 0.8296 0.0000 0.5583
vn 0.0000 -1.0000 0.0000
vn 0.0000 1.0000 0.0000
usemtl None
s off
f 33/57/25 34/58/25 36/59/25 35/60/25
f 35/60/26 36/59/26 40/61/26 39/62/26
f 39/62/27 40/61/27 38/63/27 37/64/27
f 37/64/28 38/63/28 34/65/28 33/66/28
f 35/67/29 39/62/29 37/64/29 33/68/29
f 40/61/30 36/69/30 34/70/30 38/63/30
o Cube.005_Cube.006
v 4.708076 -0.838710 3.719759
v 4.708076 0.838710 3.719759
v 4.387768 -0.838710 4.163635
v 4.387768 0.838710 4.163635
v 0.822548 -0.838710 0.915897
v 0.822548 0.838710 0.915897
v 0.502239 -0.838710 1.359774
v 0.502239 0.838710 1.359774
vt 0.375000 0.000000
vt 0.625000 0.000000
vt 0.625000 0.250000
vt 0.375000 0.250000
vt 0.625000 0.500000
vt 0.375000 0.500000
vt 0.625000 0.750000
vt 0.375000 0.750000
vt 0.625000 1.000000
vt 0.375000 1.000000
vt 0.125000 0.500000
vt 0.125000 0.750000
vt 0.875000 0.500000
vt 0.875000 0.750000
vn 0.8109 0.0000 0.5852
vn -0.5852 0.0000 0.8109
vn -0.8109 0.0000 -0.5852
vn 0.5852 0.0000 -0.8109
vn 0.0000 -1.0000 0.0000
vn 0.0000 1.0000 0.0000
usemtl None
s off
f 41/71/31 42/72/31 44/73/31 43/74/31
f 43/74/32 44/73/32 48/75/32 47/76/32
f 47/76/33 48/75/33 46/77/33 45/78/33
f 45/78/34 46/77/34 42/79/34 41/80/34
f 43/81/35 47/76/35 45/78/35 41/82/35
f 48/75/36 44/83/36 42/84/36 46/77/36
o Cube.006_Cube.007
v 4.490824 -1.513589 -0.451031
v 4.490824 1.513589 -0.451031
v 4.058988 -1.513589 -0.114665
v 4.058988 1.513589 -0.114665
v 1.546403 -1.513589 -4.231157
v 1.546403 1.513589 -4.231157
v 1.114567 -1.513589 -3.894792
v 1.114567 1.513589 -3.894792
vt 0.375000 0.000000
vt 0.625000 0.000000
vt 0.625000 0.250000
vt 0.375000 0.250000
vt 0.625000 0.500000
vt 0.375000 0.500000
vt 0.625000 0.750000
vt 0.375000 0.750000
vt 0.625000 1.000000
vt 0.375000 1.000000
vt 0.125000 0.500000
vt 0.125000 0.750000
vt 0.875000 0.500000
vt 0.875000 0.750000
vn 0.6145 0.0000 0.7889
vn -0.7889 0.0000 0.6145
vn -0.6145 0.0000 -0.7889
vn 0.7889 0.0000 -0.6145
vn 0.0000 -1.0000 0.0000
vn 0.0000 1.0000 0.0000
usemtl None
s off
f 49/85/37 50/86/37 52/87/37 51/88/37
f 51/88/38 52/87/38 56/89/38 55/90/38
f 55/90/39 56/89/39 54/91/39 53/92/39
f 53/92/40 54/91/40 50/93/40 49/94/40
f 51/95/41 55/90/41 53/92/41 49/96/41
f 56/89/42 52/97/42 50/98/42 54/91/42
o Cube.007_Cube.008
v -2.058522 -1.513589 -2.641011
v -2.058522 1.513589 -2.641011
v -2.068313 -1.513589 -2.094121
v -2.068313 1.513589 -2.094121
v -5.533082 -1.513589 -2.703216
v -5.533082 1.513589 -2.703216
v -5.542872 -1.513589 -2.156325
v -5.542872 1.513589 -2.156325
vt 0.375000 0.000000
vt 0.625000 0.000000
vt 0.625000 0.250000
vt 0.375000 0.250000
vt 0.625000 0.500000
vt 0.375000 0.500000
vt 0.625000 0.750000
vt 0.375000 0.750000
vt 0.625000 1.000000
vt 0.375000 1.000000
vt 0.125000 0.500000
vt 0.125000 0.750000
vt 0.875000 0.500000
vt 0.875000 0.750000
vn 0.9998 0.0000 0.0179
vn -0.0179 0.0000 0.9998
vn -0.9998 0.0000 -0.0179
vn 0.0179 0.0000 -0.9998
vn 0.0000 -1.0000 0.0000
vn 0.0000 1.0000 0.0000
usemtl None
s off
f 57/99/43 58/100/43 60/101/43 59/102/43
f 59/102/44 60/101/44 64/103/44 63/104/44
f 63/104/45 64/103/45 62/105/45 61/106/45
f 61/106/46 62/105/46 58/107/46 57/108/46
f 59/109/47 63/104/47 61/106/47 57/110/47
f 64/103/48 60/111/48 58/112/48 62/105/48
