# Blender v3.0.0 OBJ File: 'room.blend'
# www.blender.org
mtllib roomB.mtl
o Cube.001_Cube.001
v -3.791689 -0.016921 4.466493
v -3.791689 0.426917 4.466493
v -3.791689 0.426917 3.440575
v -3.791689 -0.016921 3.440575
v 3.772354 0.426917 3.440575
v 3.772354 -0.016921 3.440575
v 3.772354 0.426917 4.466493
v 3.772354 -0.016921 4.466493
vt 0.375000 0.000000
vt 0.625000 0.000000
vt 0.625000 0.250000
vt 0.375000 0.250000
vt 0.625000 0.500000
vt 0.375000 0.500000
vt 0.625000 0.750000
vt 0.375000 0.750000
vt 0.625000 1.000000
vt 0.375000 1.000000
vt 0.125000 0.500000
vt 0.125000 0.750000
vt 0.875000 0.500000
vt 0.875000 0.750000
vn -1.0000 0.0000 0.0000
vn 0.0000 0.0000 -1.0000
vn 1.0000 0.0000 0.0000
vn 0.0000 0.0000 1.0000
vn 0.0000 -1.0000 -0.0000
vn 0.0000 1.0000 0.0000
usemtl None.002
s 1
f 1/1/1 2/2/1 3/3/1 4/4/1
f 4/4/2 3/3/2 5/5/2 6/6/2
f 6/6/3 5/5/3 7/7/3 8/8/3
f 8/8/4 7/7/4 2/9/4 1/10/4
f 4/11/5 6/6/5 8/8/5 1/12/5
f 5/5/6 3/13/6 2/14/6 7/7/6
o Cube.002_Cube.001
v -3.791689 -0.016919 -3.497153
v -3.791689 0.426918 -3.497153
v -3.791689 0.426918 -4.523071
v -3.791689 -0.016919 -4.523071
v 3.772354 0.426918 -4.523071
v 3.772354 -0.016919 -4.523071
v 3.772354 0.426918 -3.497153
v 3.772354 -0.016919 -3.497153
vt 0.375000 0.000000
vt 0.625000 0.000000
vt 0.625000 0.250000
vt 0.375000 0.250000
vt 0.625000 0.500000
vt 0.375000 0.500000
vt 0.625000 0.750000
vt 0.375000 0.750000
vt 0.625000 1.000000
vt 0.375000 1.000000
vt 0.125000 0.500000
vt 0.125000 0.750000
vt 0.875000 0.500000
vt 0.875000 0.750000
vn -1.0000 0.0000 0.0000
vn 0.0000 0.0000 -1.0000
vn 1.0000 0.0000 0.0000
vn 0.0000 0.0000 1.0000
vn 0.0000 -1.0000 -0.0000
vn 0.0000 1.0000 0.0000
usemtl None.002
s 1
f 9/15/7 10/16/7 11/17/7 12/18/7
f 12/18/8 11/17/8 13/19/8 14/20/8
f 14/20/9 13/19/9 15/21/9 16/22/9
f 16/22/10 15/21/10 10/23/10 9/24/10
f 12/25/11 14/20/11 16/22/11 9/26/11
f 13/19/12 11/27/12 10/28/12 15/21/12
o Cube.003_Cube.001
v 3.471954 -0.016921 4.560306
v 3.471954 0.426917 4.560306
v 3.471954 0.426918 -4.616885
v 3.471954 -0.016919 -4.616885
v 4.571515 0.426918 -4.616885
v 4.571515 -0.016919 -4.616885
v 4.571515 0.426917 4.560306
v 4.571515 -0.016921 4.560306
vt 0.375000 0.000000
vt 0.625000 0.000000
vt 0.625000 0.250000
vt 0.375000 0.250000
vt 0.625000 0.500000
vt 0.375000 0.500000
vt 0.625000 0.750000
vt 0.375000 0.750000
vt 0.625000 1.000000
vt 0.375000 1.000000
vt 0.125000 0.500000
vt 0.125000 0.750000
vt 0.875000 0.500000
vt 0.875000 0.750000
vn -1.0000 0.0000 0.0000
vn 0.0000 0.0000 -1.0000
vn 1.0000 0.0000 0.0000
vn 0.0000 0.0000 1.0000
vn 0.0000 -1.0000 -0.0000
vn 0.0000 1.0000 0.0000
usemtl None.002
s 1
f 17/29/13 18/30/13 19/31/13 20/32/13
f 20/32/14 19/31/14 21/33/14 22/34/14
f 22/34/15 21/33/15 23/35/15 24/36/15
f 24/36/16 23/35/16 18/37/16 17/38/16
f 20/39/17 22/34/17 24/36/17 17/40/17
f 21/33/18 19/41/18 18/42/18 23/35/18
o Cube.004_Cube.001
v -4.368871 -0.016921 4.560306
v -4.368871 0.426917 4.560306
v -4.368871 0.426918 -4.616885
v -4.368871 -0.016919 -4.616885
v -3.269310 0.426918 -4.616885
v -3.269310 -0.016919 -4.616885
v -3.269310 0.426917 4.560306
v -3.269310 -0.016921 4.560306
vt 0.375000 0.000000
vt 0.625000 0.000000
vt 0.625000 0.250000
vt 0.375000 0.250000
vt 0.625000 0.500000
vt 0.375000 0.500000
vt 0.625000 0.750000
vt 0.375000 0.750000
vt 0.625000 1.000000
vt 0.375000 1.000000
vt 0.125000 0.500000
vt 0.125000 0.750000
vt 0.875000 0.500000
vt 0.875000 0.750000
vn -1.0000 0.0000 0.0000
vn 0.0000 0.0000 -1.0000
vn 1.0000 0.0000 0.0000
vn 0.0000 0.0000 1.0000
vn 0.0000 -1.0000 -0.0000
vn 0.0000 1.0000 0.0000
usemtl None.002
s 1
f 25/43/19 26/44/19 27/45/19 28/46/19
f 28/46/20 27/45/20 29/47/20 30/48/20
f 30/48/21 29/47/21 31/49/21 32/50/21
f 32/50/22 31/49/22 26/51/22 25/52/22
f 28/53/23 30/48/23 32/50/23 25/54/23
f 29/47/24 27/55/24 26/56/24 31/49/24
o Cube.001_Cube.003
v -3.791689 3.589795 4.466493
v -3.791689 4.033633 4.466493
v -3.791689 4.033633 3.440575
v -3.791689 3.589795 3.440575
v 3.772354 4.033633 3.440575
v 3.772354 3.589795 3.440575
v 3.772354 4.033633 4.466493
v 3.772354 3.589795 4.466493
vt 0.375000 0.000000
vt 0.625000 0.000000
vt 0.625000 0.250000
vt 0.375000 0.250000
vt 0.625000 0.500000
vt 0.375000 0.500000
vt 0.625000 0.750000
vt 0.375000 0.750000
vt 0.625000 1.000000
vt 0.375000 1.000000
vt 0.125000 0.500000
vt 0.125000 0.750000
vt 0.875000 0.500000
vt 0.875000 0.750000
vn -1.0000 0.0000 0.0000
vn 0.0000 0.0000 -1.0000
vn 1.0000 0.0000 0.0000
vn 0.0000 0.0000 1.0000
vn 0.0000 -1.0000 -0.0000
vn 0.0000 1.0000 0.0000
usemtl None.003
s 1
f 33/57/25 34/58/25 35/59/25 36/60/25
f 36/60/26 35/59/26 37/61/26 38/62/26
f 38/62/27 37/61/27 39/63/27 40/64/27
f 40/64/28 39/63/28 34/65/28 33/66/28
f 36/67/29 38/62/29 40/64/29 33/68/29
f 37/61/30 35/69/30 34/70/30 39/63/30
o Cube.002_Cube.002
v -3.791689 3.589796 -3.497153
v -3.791689 4.033634 -3.497153
v -3.791689 4.033634 -4.523071
v -3.791689 3.589796 -4.523071
v 3.772354 4.033634 -4.523071
v 3.772354 3.589796 -4.523071
v 3.772354 4.033634 -3.497153
v 3.772354 3.589796 -3.497153
vt 0.375000 0.000000
vt 0.625000 0.000000
vt 0.625000 0.250000
vt 0.375000 0.250000
vt 0.625000 0.500000
vt 0.375000 0.500000
vt 0.625000 0.750000
vt 0.375000 0.750000
vt 0.625000 1.000000
vt 0.375000 1.000000
vt 0.125000 0.500000
vt 0.125000 0.750000
vt 0.875000 0.500000
vt 0.875000 0.750000
vn -1.0000 0.0000 0.0000
vn 0.0000 0.0000 -1.0000
vn 1.0000 0.0000 0.0000
vn 0.0000 0.0000 1.0000
vn 0.0000 -1.0000 0.0000
vn 0.0000 1.0000 0.0000
usemtl None.003
s 1
f 41/71/31 42/72/31 43/73/31 44/74/31
f 44/74/32 43/73/32 45/75/32 46/76/32
f 46/76/33 45/75/33 47/77/33 48/78/33
f 48/78/34 47/77/34 42/79/34 41/80/34
f 44/81/35 46/76/35 48/78/35 41/82/35
f 45/75/36 43/83/36 42/84/36 47/77/36
o Cube.003_Cube.002
v 3.471954 3.589795 4.560306
v 3.471954 4.033633 4.560306
v 3.471954 4.033634 -4.616885
v 3.471954 3.589796 -4.616885
v 4.571515 4.033634 -4.616885
v 4.571515 3.589796 -4.616885
v 4.571515 4.033633 4.560306
v 4.571515 3.589795 4.560306
vt 0.375000 0.000000
vt 0.625000 0.000000
vt 0.625000 0.250000
vt 0.375000 0.250000
vt 0.625000 0.500000
vt 0.375000 0.500000
vt 0.625000 0.750000
vt 0.375000 0.750000
vt 0.625000 1.000000
vt 0.375000 1.000000
vt 0.125000 0.500000
vt 0.125000 0.750000
vt 0.875000 0.500000
vt 0.875000 0.750000
vn -1.0000 0.0000 0.0000
vn 0.0000 0.0000 -1.0000
vn 1.0000 0.0000 0.0000
vn 0.0000 0.0000 1.0000
vn 0.0000 -1.0000 -0.0000
vn 0.0000 1.0000 0.0000
usemtl None.003
s 1
f 49/85/37 50/86/37 51/87/37 52/88/37
f 52/88/38 51/87/38 53/89/38 54/90/38
f 54/90/39 53/89/39 55/91/39 56/92/39
f 56/92/40 55/91/40 50/93/40 49/94/40
f 52/95/41 54/90/41 56/92/41 49/96/41
f 53/89/42 51/97/42 50/98/42 55/91/42
o Cube.004_Cube.002
v -4.368871 3.589795 4.560306
v -4.368871 4.033633 4.560306
v -4.368871 4.033634 -4.616885
v -4.368871 3.589796 -4.616885
v -3.269310 4.033634 -4.616885
v -3.269310 3.589796 -4.616885
v -3.269310 4.033633 4.560306
v -3.269310 3.589795 4.560306
vt 0.375000 0.000000
vt 0.625000 0.000000
vt 0.625000 0.250000
vt 0.375000 0.250000
vt 0.625000 0.500000
vt 0.375000 0.500000
vt 0.625000 0.750000
vt 0.375000 0.750000
vt 0.625000 1.000000
vt 0.375000 1.000000
vt 0.125000 0.500000
vt 0.125000 0.750000
vt 0.875000 0.500000
vt 0.875000 0.750000
vn -1.0000 0.0000 0.0000
vn 0.0000 0.0000 -1.0000
vn 1.0000 0.0000 0.0000
vn 0.0000 0.0000 1.0000
vn 0.0000 -1.0000 -0.0000
vn 0.0000 1.0000 0.0000
usemtl None.003
s 1
f 57/99/43 58/100/43 59/101/43 60/102/43
f 60/102/44 59/101/44 61/103/44 62/104/44
f 62/104/45 61/103/45 63/105/45 64/106/45
f 64/106/46 63/105/46 58/107/46 57/108/46
f 60/109/47 62/104/47 64/106/47 57/110/47
f 61/103/48 59/111/48 58/112/48 63/105/48
