# Blender v3.0.0 OBJ File: ''
# www.blender.org
mtllib plate.mtl
o Cylinder.003
v 0.000000 -2.608422 -5.877928
v 0.000000 -2.233391 -5.877928
v 1.146727 -2.608422 -5.764985
v 1.146727 -2.233391 -5.764985
v 2.249386 -2.608422 -5.430497
v 2.249386 -2.233391 -5.430497
v 3.265602 -2.608422 -4.887318
v 3.265602 -2.233391 -4.887318
v 4.156322 -2.608422 -4.156322
v 4.156322 -2.233391 -4.156322
v 4.887318 -2.608422 -3.265602
v 4.887318 -2.233391 -3.265602
v 5.430497 -2.608422 -2.249386
v 5.430497 -2.233391 -2.249386
v 5.764985 -2.608422 -1.146727
v 5.764985 -2.233391 -1.146727
v 5.877928 -2.608422 0.000000
v 5.877928 -2.233391 0.000000
v 5.764985 -2.608422 1.146727
v 5.764985 -2.233391 1.146727
v 5.430497 -2.608422 2.249385
v 5.430497 -2.233391 2.249385
v 4.887319 -2.608422 3.265601
v 4.887319 -2.233391 3.265601
v 4.156322 -2.608422 4.156322
v 4.156322 -2.233391 4.156322
v 3.265601 -2.608422 4.887319
v 3.265601 -2.233391 4.887319
v 2.249386 -2.608422 5.430497
v 2.249386 -2.233391 5.430497
v 1.146727 -2.608422 5.764985
v 1.146727 -2.233391 5.764985
v -0.000001 -2.608422 5.877928
v -0.000001 -2.233391 5.877928
v -1.146726 -2.608422 5.764985
v -1.146726 -2.233391 5.764985
v -2.249386 -2.608422 5.430497
v -2.249386 -2.233391 5.430497
v -3.265602 -2.608422 4.887318
v -3.265602 -2.233391 4.887318
v -4.156322 -2.608422 4.156323
v -4.156322 -2.233391 4.156323
v -4.887318 -2.608422 3.265603
v -4.887318 -2.233391 3.265603
v -5.430497 -2.608422 2.249386
v -5.430497 -2.233391 2.249386
v -5.764985 -2.608422 1.146727
v -5.764985 -2.233391 1.146727
v -5.877928 -2.608422 -0.000000
v -5.877928 -2.233391 -0.000000
v -5.764985 -2.608422 -1.146727
v -5.764985 -2.233391 -1.146727
v -5.430497 -2.608422 -2.249387
v -5.430497 -2.233391 -2.249387
v -4.887319 -2.608422 -3.265601
v -4.887319 -2.233391 -3.265601
v -4.156323 -2.608422 -4.156322
v -4.156323 -2.233391 -4.156322
v -3.265602 -2.608422 -4.887318
v -3.265602 -2.233391 -4.887318
v -2.249386 -2.608422 -5.430497
v -2.249386 -2.233391 -5.430497
v -1.146726 -2.608422 -5.764985
v -1.146726 -2.233391 -5.764985
v -5.798723 -2.233391 0.804177
v 4.432680 -2.233391 -3.819581
v 0.313170 -2.233391 -3.919988
v 0.309105 -2.233391 -3.920087
v -2.366780 -2.233391 -0.557085
v -4.575117 -2.233391 0.759076
v -0.344658 -2.233391 -5.843982
v -0.564548 -2.608422 -5.822325
v 5.670769 -2.608422 1.457315
v 5.670337 -2.608422 1.458737
v -2.312619 -2.608422 -4.651473
v 0.484053 -2.608422 -0.839500
v 3.043310 -2.608422 2.338314
v 4.695374 -2.608422 2.229270
v 2.697806 -2.608422 -2.296987
vt 1.000000 0.500000
vt 1.000000 1.000000
vt 0.968750 1.000000
vt 0.968750 0.500000
vt 0.937500 1.000000
vt 0.937500 0.500000
vt 0.906250 1.000000
vt 0.906250 0.500000
vt 0.875000 1.000000
vt 0.875000 0.500000
vt 0.863186 1.000000
vt 0.843750 1.000000
vt 0.843750 0.500000
vt 0.812500 1.000000
vt 0.812500 0.500000
vt 0.781250 1.000000
vt 0.781250 0.500000
vt 0.750000 1.000000
vt 0.750000 0.500000
vt 0.718750 1.000000
vt 0.718750 0.500000
vt 0.687500 1.000000
vt 0.687500 0.500000
vt 0.709907 0.500000
vt 0.709948 0.500000
vt 0.656250 1.000000
vt 0.656250 0.500000
vt 0.625000 1.000000
vt 0.625000 0.500000
vt 0.593750 1.000000
vt 0.593750 0.500000
vt 0.562500 1.000000
vt 0.562500 0.500000
vt 0.531250 1.000000
vt 0.531250 0.500000
vt 0.500000 1.000000
vt 0.500000 0.500000
vt 0.468750 1.000000
vt 0.468750 0.500000
vt 0.437500 1.000000
vt 0.437500 0.500000
vt 0.406250 1.000000
vt 0.406250 0.500000
vt 0.375000 1.000000
vt 0.375000 0.500000
vt 0.343750 1.000000
vt 0.343750 0.500000
vt 0.312500 1.000000
vt 0.312500 0.500000
vt 0.281250 1.000000
vt 0.281250 0.500000
vt 0.271915 1.000000
vt 0.250000 1.000000
vt 0.250000 0.500000
vt 0.218750 1.000000
vt 0.218750 0.500000
vt 0.187500 1.000000
vt 0.187500 0.500000
vt 0.156250 1.000000
vt 0.156250 0.500000
vt 0.125000 1.000000
vt 0.125000 0.500000
vt 0.093750 1.000000
vt 0.093750 0.500000
vt 0.062500 1.000000
vt 0.062500 0.500000
vt 0.296822 0.485388
vt 0.250000 0.490000
vt 0.235927 0.488614
vt 0.203178 0.485388
vt 0.158156 0.471731
vt 0.116663 0.449553
vt 0.080294 0.419706
vt 0.262621 0.410060
vt 0.262787 0.410056
vt 0.419706 0.419706
vt 0.383337 0.449553
vt 0.341844 0.471731
vt 0.031250 1.000000
vt 0.031250 0.500000
vt 0.009392 1.000000
vt 0.015385 0.500000
vt 0.750000 0.490000
vt 0.796822 0.485388
vt 0.841844 0.471731
vt 0.883337 0.449553
vt 0.919706 0.419706
vt 0.949553 0.383337
vt 0.971731 0.341844
vt 0.985388 0.296822
vt 0.990000 0.250000
vt 0.985388 0.203178
vt 0.981542 0.190497
vt 0.860153 0.343788
vt 0.726949 0.487730
vt 0.430990 0.405956
vt 0.153363 0.272746
vt 0.063195 0.219006
vt 0.013234 0.217165
vt 0.014612 0.203178
vt 0.028269 0.158156
vt 0.050447 0.116663
vt 0.080294 0.080294
vt 0.116663 0.050447
vt 0.158156 0.028269
vt 0.203178 0.014612
vt 0.250000 0.010000
vt 0.296822 0.014612
vt 0.341844 0.028269
vt 0.383337 0.050447
vt 0.419706 0.080294
vt 0.449553 0.116663
vt 0.471731 0.158156
vt 0.485388 0.203178
vt 0.490000 0.250000
vt 0.485388 0.296822
vt 0.471731 0.341844
vt 0.449553 0.383337
vt 0.050447 0.383337
vt 0.028269 0.341844
vt 0.014612 0.296822
vt 0.010000 0.250000
vt 0.981524 0.190439
vt 0.941715 0.158977
vt 0.874260 0.154525
vt 0.769764 0.284277
vt 0.655574 0.439923
vt 0.616663 0.449553
vt 0.658156 0.471731
vt 0.703178 0.485388
vt 0.971731 0.158156
vt 0.949553 0.116663
vt 0.919706 0.080294
vt 0.883337 0.050447
vt 0.841844 0.028269
vt 0.796822 0.014612
vt 0.750000 0.010000
vt 0.703178 0.014612
vt 0.658156 0.028269
vt 0.616663 0.050447
vt 0.580294 0.080294
vt 0.550447 0.116663
vt 0.528269 0.158156
vt 0.514612 0.203178
vt 0.510000 0.250000
vt 0.514612 0.296822
vt 0.528269 0.341844
vt 0.550447 0.383337
vt 0.580294 0.419706
vt 0.000000 1.000000
vt 0.000000 0.500000
vn 0.0980 0.0000 -0.9952
vn 0.2903 0.0000 -0.9569
vn 0.4714 0.0000 -0.8819
vn 0.6344 0.0000 -0.7730
vn 0.7730 -0.0000 -0.6344
vn 0.8819 0.0000 -0.4714
vn 0.9569 0.0000 -0.2903
vn 0.9952 0.0000 -0.0980
vn 0.9952 0.0000 0.0980
vn 0.9569 -0.0000 0.2903
vn 0.8819 0.0000 0.4714
vn 0.7730 0.0000 0.6344
vn 0.6344 0.0000 0.7730
vn 0.4714 0.0000 0.8819
vn 0.2903 0.0000 0.9569
vn 0.0980 0.0000 0.9952
vn -0.0980 0.0000 0.9952
vn -0.2903 0.0000 0.9569
vn -0.4714 0.0000 0.8819
vn -0.6344 0.0000 0.7730
vn -0.7730 0.0000 0.6344
vn -0.8819 0.0000 0.4714
vn -0.9569 0.0000 0.2903
vn -0.9952 0.0000 0.0980
vn -0.9952 0.0000 -0.0980
vn -0.9569 0.0000 -0.2903
vn -0.8819 0.0000 -0.4714
vn -0.7730 0.0000 -0.6344
vn -0.6344 0.0000 -0.7730
vn -0.4714 0.0000 -0.8819
vn 0.0000 1.0000 -0.0000
vn -0.2903 0.0000 -0.9569
vn -0.0980 0.0000 -0.9952
vn 0.0000 -1.0000 0.0000
usemtl Material.001
s off
f 1/1/1 2/2/1 4/3/1 3/4/1
f 3/4/2 4/3/2 6/5/2 5/6/2
f 5/6/3 6/5/3 8/7/3 7/8/3
f 7/8/4 8/7/4 10/9/4 9/10/4
f 9/10/5 10/9/5 66/11/5 12/12/5 11/13/5
f 11/13/6 12/12/6 14/14/6 13/15/6
f 13/15/7 14/14/7 16/16/7 15/17/7
f 15/17/8 16/16/8 18/18/8 17/19/8
f 17/19/9 18/18/9 20/20/9 19/21/9
f 19/21/10 20/20/10 22/22/10 21/23/10 74/24/10 73/25/10
f 21/23/11 22/22/11 24/26/11 23/27/11
f 23/27/12 24/26/12 26/28/12 25/29/12
f 25/29/13 26/28/13 28/30/13 27/31/13
f 27/31/14 28/30/14 30/32/14 29/33/14
f 29/33/15 30/32/15 32/34/15 31/35/15
f 31/35/16 32/34/16 34/36/16 33/37/16
f 33/37/17 34/36/17 36/38/17 35/39/17
f 35/39/18 36/38/18 38/40/18 37/41/18
f 37/41/19 38/40/19 40/42/19 39/43/19
f 39/43/20 40/42/20 42/44/20 41/45/20
f 41/45/21 42/44/21 44/46/21 43/47/21
f 43/47/22 44/46/22 46/48/22 45/49/22
f 45/49/23 46/48/23 48/50/23 47/51/23
f 47/51/24 48/50/24 65/52/24 50/53/24 49/54/24
f 49/54/25 50/53/25 52/55/25 51/56/25
f 51/56/26 52/55/26 54/57/26 53/58/26
f 53/58/27 54/57/27 56/59/27 55/60/27
f 55/60/28 56/59/28 58/61/28 57/62/28
f 57/62/29 58/61/29 60/63/29 59/64/29
f 59/64/30 60/63/30 62/65/30 61/66/30
f 4/67/31 2/68/31 71/69/31 64/70/31 62/71/31 60/72/31 58/73/31 68/74/31 67/75/31 10/76/31 8/77/31 6/78/31
f 61/66/32 62/65/32 64/79/32 63/80/32
f 63/80/33 64/79/33 71/81/33 72/82/33
f 1/83/34 3/84/34 5/85/34 7/86/34 9/87/34 11/88/34 13/89/34 15/90/34 17/91/34 19/92/34 73/93/34 79/94/34 72/95/34
f 10/76/31 67/75/31 66/96/31
f 66/96/31 67/75/31 69/97/31 70/98/31 65/99/31 48/100/31 46/101/31 44/102/31 42/103/31 40/104/31 38/105/31 36/106/31 34/107/31 32/108/31 30/109/31 28/110/31 26/111/31 24/112/31 22/113/31 20/114/31 18/115/31 16/116/31 14/117/31 12/118/31
f 65/99/31 70/98/31 69/97/31 67/75/31 68/74/31 58/73/31 56/119/31 54/120/31 52/121/31 50/122/31
f 72/95/34 79/94/34 73/93/34 74/123/34 78/124/34 77/125/34 76/126/34 75/127/34 59/128/34 61/129/34 63/130/34
f 59/128/34 75/127/34 76/126/34 77/125/34 78/124/34 74/123/34 21/131/34 23/132/34 25/133/34 27/134/34 29/135/34 31/136/34 33/137/34 35/138/34 37/139/34 39/140/34 41/141/34 43/142/34 45/143/34 47/144/34 49/145/34 51/146/34 53/147/34 55/148/34 57/149/34
f 72/82/33 71/81/33 2/150/33 1/151/33
