# Blender v3.0.0 OBJ File: ''
# www.blender.org
mtllib sifiBlockout.mtl
o Cube_Cube.005
v -15.219900 -1.000000 15.219900
v -15.219900 1.000000 15.219900
v -15.219900 -1.000000 -15.219900
v -15.219900 1.000000 -15.219900
v 15.219900 -1.000000 15.219900
v 15.219900 1.000000 15.219900
v 15.219900 -1.000000 -15.219900
v 15.219900 1.000000 -15.219900
vt 0.375000 0.000000
vt 0.625000 0.000000
vt 0.625000 0.250000
vt 0.375000 0.250000
vt 0.625000 0.500000
vt 0.375000 0.500000
vt 0.625000 0.750000
vt 0.375000 0.750000
vt 0.625000 1.000000
vt 0.375000 1.000000
vt 0.125000 0.500000
vt 0.125000 0.750000
vt 0.875000 0.500000
vt 0.875000 0.750000
vn -1.0000 0.0000 0.0000
vn 0.0000 0.0000 -1.0000
vn 1.0000 0.0000 0.0000
vn 0.0000 0.0000 1.0000
vn 0.0000 -1.0000 0.0000
vn 0.0000 1.0000 0.0000
usemtl None
s off
f 1/1/1 2/2/1 4/3/1 3/4/1
f 3/4/2 4/3/2 8/5/2 7/6/2
f 7/6/3 8/5/3 6/7/3 5/8/3
f 5/8/4 6/7/4 2/9/4 1/10/4
f 3/11/5 7/6/5 5/8/5 1/12/5
f 8/5/6 4/13/6 2/14/6 6/7/6
o Cube.001_Cube.006
v -15.240278 0.453755 -4.740832
v -15.240278 10.867632 -4.740832
v -15.240278 0.453755 -15.154709
v -15.240278 10.867632 -15.154709
v 1.196367 0.453755 -4.740832
v 1.196367 10.867632 -4.740832
v 1.196367 0.453755 -15.154709
v 1.196367 10.867632 -15.154709
vt 0.375000 0.000000
vt 0.625000 0.000000
vt 0.625000 0.250000
vt 0.375000 0.250000
vt 0.625000 0.500000
vt 0.375000 0.500000
vt 0.625000 0.750000
vt 0.375000 0.750000
vt 0.625000 1.000000
vt 0.375000 1.000000
vt 0.125000 0.500000
vt 0.125000 0.750000
vt 0.875000 0.500000
vt 0.875000 0.750000
vn -1.0000 0.0000 0.0000
vn 0.0000 0.0000 -1.0000
vn 1.0000 0.0000 0.0000
vn 0.0000 0.0000 1.0000
vn 0.0000 -1.0000 0.0000
vn 0.0000 1.0000 0.0000
usemtl None
s off
f 9/15/7 10/16/7 12/17/7 11/18/7
f 11/18/8 12/17/8 16/19/8 15/20/8
f 15/20/9 16/19/9 14/21/9 13/22/9
f 13/22/10 14/21/10 10/23/10 9/24/10
f 11/25/11 15/20/11 13/22/11 9/26/11
f 16/19/12 12/27/12 10/28/12 14/21/12
o Cube.002_Cube.007
v -15.237130 0.453755 4.889973
v -15.237130 10.867632 4.889973
v -15.237130 0.453755 -5.523903
v -15.237130 10.867632 -5.523903
v -7.400405 0.453755 4.889973
v -7.400405 10.867632 4.889973
v -7.400405 0.453755 -5.523903
v -7.400405 10.867632 -5.523903
v -11.318768 0.453755 -5.523903
v -11.318768 10.867632 -5.523903
v -11.318768 0.453755 4.889973
v -11.318768 10.867632 4.889973
vt 0.375000 0.000000
vt 0.625000 0.000000
vt 0.625000 0.250000
vt 0.375000 0.250000
vt 0.375000 0.375000
vt 0.625000 0.375000
vt 0.625000 0.500000
vt 0.375000 0.500000
vt 0.625000 0.750000
vt 0.375000 0.750000
vt 0.375000 0.875000
vt 0.625000 0.875000
vt 0.625000 1.000000
vt 0.375000 1.000000
vt 0.250000 0.500000
vt 0.250000 0.750000
vt 0.750000 0.500000
vt 0.875000 0.500000
vt 0.875000 0.750000
vt 0.750000 0.750000
vt 0.125000 0.500000
vt 0.125000 0.750000
vn -1.0000 0.0000 0.0000
vn 0.0000 0.0000 -1.0000
vn 1.0000 0.0000 0.0000
vn 0.0000 0.0000 1.0000
vn 0.0000 -1.0000 0.0000
vn 0.0000 1.0000 0.0000
usemtl None
s off
f 17/29/13 18/30/13 20/31/13 19/32/13
f 25/33/14 26/34/14 24/35/14 23/36/14
f 23/36/15 24/35/15 22/37/15 21/38/15
f 27/39/16 28/40/16 18/41/16 17/42/16
f 25/43/17 23/36/17 21/38/17 27/44/17
f 26/45/18 20/46/18 18/47/18 28/48/18
f 24/35/18 26/45/18 28/48/18 22/37/18
f 19/49/17 25/43/17 27/44/17 17/50/17
f 21/38/16 22/37/16 28/40/16 27/39/16
f 19/32/14 20/31/14 26/34/14 25/33/14
o Cube.003_Cube.008
v 7.345486 0.453755 15.207204
v 7.345486 10.867632 15.207204
v 7.345486 0.453755 -0.847774
v 7.345486 10.867632 -0.847774
v 15.182211 0.453755 15.207204
v 15.182211 10.867632 15.207204
v 15.182211 0.453755 -0.847774
v 15.182211 10.867632 -0.847774
v 11.263848 0.453755 -0.847774
v 11.263848 10.867632 -0.847774
v 11.263848 0.453755 15.207204
v 11.263848 10.867632 15.207204
vt 0.375000 0.000000
vt 0.625000 0.000000
vt 0.625000 0.250000
vt 0.375000 0.250000
vt 0.375000 0.375000
vt 0.625000 0.375000
vt 0.625000 0.500000
vt 0.375000 0.500000
vt 0.625000 0.750000
vt 0.375000 0.750000
vt 0.375000 0.875000
vt 0.625000 0.875000
vt 0.625000 1.000000
vt 0.375000 1.000000
vt 0.250000 0.500000
vt 0.250000 0.750000
vt 0.750000 0.500000
vt 0.875000 0.500000
vt 0.875000 0.750000
vt 0.750000 0.750000
vt 0.125000 0.500000
vt 0.125000 0.750000
vn -1.0000 0.0000 0.0000
vn 0.0000 0.0000 -1.0000
vn 1.0000 0.0000 0.0000
vn 0.0000 0.0000 1.0000
vn 0.0000 -1.0000 0.0000
vn 0.0000 1.0000 0.0000
usemtl None
s off
f 29/51/19 30/52/19 32/53/19 31/54/19
f 37/55/20 38/56/20 36/57/20 35/58/20
f 35/58/21 36/57/21 34/59/21 33/60/21
f 39/61/22 40/62/22 30/63/22 29/64/22
f 37/65/23 35/58/23 33/60/23 39/66/23
f 38/67/24 32/68/24 30/69/24 40/70/24
f 36/57/24 38/67/24 40/70/24 34/59/24
f 31/71/23 37/65/23 39/66/23 29/72/23
f 33/60/22 34/59/22 40/62/22 39/61/22
f 31/54/20 32/53/20 38/56/20 37/55/20
o Cube.004_Cube.009
v 7.669154 0.561540 15.220852
v 7.669154 6.435504 15.220852
v -2.744723 0.561540 15.220852
v -2.744723 6.435504 15.220852
v 7.669154 0.561540 7.384127
v 7.669154 6.435504 7.384127
v -2.744723 0.561540 7.384127
v -2.744723 6.435504 7.384127
v -2.744723 0.561540 11.302489
v -2.744723 6.435504 11.302489
v 7.669154 0.561540 11.302489
v 7.669154 6.435504 11.302489
vt 0.375000 0.000000
vt 0.625000 0.000000
vt 0.625000 0.250000
vt 0.375000 0.250000
vt 0.375000 0.375000
vt 0.625000 0.375000
vt 0.625000 0.500000
vt 0.375000 0.500000
vt 0.625000 0.750000
vt 0.375000 0.750000
vt 0.375000 0.875000
vt 0.625000 0.875000
vt 0.625000 1.000000
vt 0.375000 1.000000
vt 0.250000 0.500000
vt 0.250000 0.750000
vt 0.750000 0.500000
vt 0.875000 0.500000
vt 0.875000 0.750000
vt 0.750000 0.750000
vt 0.125000 0.500000
vt 0.125000 0.750000
vn 0.0000 0.0000 1.0000
vn -1.0000 0.0000 0.0000
vn 0.0000 0.0000 -1.0000
vn 1.0000 0.0000 0.0000
vn 0.0000 -1.0000 0.0000
vn 0.0000 1.0000 0.0000
usemtl None
s off
f 41/73/25 42/74/25 44/75/25 43/76/25
f 49/77/26 50/78/26 48/79/26 47/80/26
f 47/80/27 48/79/27 46/81/27 45/82/27
f 51/83/28 52/84/28 42/85/28 41/86/28
f 49/87/29 47/80/29 45/82/29 51/88/29
f 50/89/30 44/90/30 42/91/30 52/92/30
f 48/79/30 50/89/30 52/92/30 46/81/30
f 43/93/29 49/87/29 51/88/29 41/94/29
f 45/82/28 46/81/28 52/84/28 51/83/28
f 43/76/26 44/75/26 50/78/26 49/77/26
