# Blender v3.0.0 OBJ File: ''
# www.blender.org
mtllib room2.mtl
o Cube_Cube.001
v -5.519203 0.233966 1.196502
v -5.519203 0.211548 -1.830592
v -5.519203 -0.313398 1.200556
v -5.519203 -0.335816 -1.826538
v -0.727651 0.233966 1.196502
v -0.727651 0.211548 -1.830592
v -0.727651 -0.313398 1.200556
v -0.727651 -0.335816 -1.826538
vt 0.375000 0.000000
vt 0.625000 0.000000
vt 0.625000 0.250000
vt 0.375000 0.250000
vt 0.625000 0.500000
vt 0.375000 0.500000
vt 0.625000 0.750000
vt 0.375000 0.750000
vt 0.625000 1.000000
vt 0.375000 1.000000
vt 0.125000 0.500000
vt 0.125000 0.750000
vt 0.875000 0.500000
vt 0.875000 0.750000
vn -1.0000 0.0000 0.0000
vn 0.0000 -1.0000 0.0074
vn 1.0000 0.0000 0.0000
vn 0.0000 1.0000 -0.0074
vn 0.0000 0.0074 1.0000
vn 0.0000 -0.0074 -1.0000
usemtl None
s off
f 1/1/1 2/2/1 4/3/1 3/4/1
f 3/4/2 4/3/2 8/5/2 7/6/2
f 7/6/3 8/5/3 6/7/3 5/8/3
f 5/8/4 6/7/4 2/9/4 1/10/4
f 3/11/5 7/6/5 5/8/5 1/12/5
f 8/5/6 4/13/6 2/14/6 6/7/6
o Cube.001_Cube.002
v -5.554050 5.103770 1.473197
v -5.554050 5.100921 1.088403
v -5.554050 -5.178570 1.549346
v -5.554050 -5.181419 1.164552
v 5.554050 5.103770 1.473197
v 5.554050 5.100921 1.088403
v 5.554050 -5.178570 1.549346
v 5.554050 -5.181419 1.164552
vt 0.375000 0.000000
vt 0.625000 0.000000
vt 0.625000 0.250000
vt 0.375000 0.250000
vt 0.625000 0.500000
vt 0.375000 0.500000
vt 0.625000 0.750000
vt 0.375000 0.750000
vt 0.625000 1.000000
vt 0.375000 1.000000
vt 0.125000 0.500000
vt 0.125000 0.750000
vt 0.875000 0.500000
vt 0.875000 0.750000
vn -1.0000 0.0000 0.0000
vn 0.0000 -1.0000 0.0074
vn 1.0000 0.0000 0.0000
vn 0.0000 1.0000 -0.0074
vn 0.0000 0.0074 1.0000
vn 0.0000 -0.0074 -1.0000
usemtl None
s off
f 9/15/7 10/16/7 12/17/7 11/18/7
f 11/18/8 12/17/8 16/19/8 15/20/8
f 15/20/9 16/19/9 14/21/9 13/22/9
f 13/22/10 14/21/10 10/23/10 9/24/10
f 11/25/11 15/20/11 13/22/11 9/26/11
f 16/19/12 12/27/12 10/28/12 14/21/12
o Cube.002_Cube.003
v -3.201059 4.506852 0.297925
v -3.201059 4.494617 -1.354312
v -3.748426 4.510403 0.297899
v -3.748427 4.498167 -1.354339
v -3.232137 -0.284467 0.333408
v -3.232138 -0.296704 -1.318829
v -3.779505 -0.280917 0.333382
v -3.779505 -0.293153 -1.318855
vt 0.375000 0.000000
vt 0.625000 0.000000
vt 0.625000 0.250000
vt 0.375000 0.250000
vt 0.625000 0.500000
vt 0.375000 0.500000
vt 0.625000 0.750000
vt 0.375000 0.750000
vt 0.625000 1.000000
vt 0.375000 1.000000
vt 0.125000 0.500000
vt 0.125000 0.750000
vt 0.875000 0.500000
vt 0.875000 0.750000
vn 0.0065 1.0000 -0.0074
vn -1.0000 0.0065 -0.0000
vn -0.0065 -1.0000 0.0074
vn 1.0000 -0.0065 0.0000
vn 0.0000 0.0074 1.0000
vn 0.0000 -0.0074 -1.0000
usemtl None
s off
f 17/29/13 18/30/13 20/31/13 19/32/13
f 19/32/14 20/31/14 24/33/14 23/34/14
f 23/34/15 24/33/15 22/35/15 21/36/15
f 21/36/16 22/35/16 18/37/16 17/38/16
f 19/39/17 23/34/17 21/36/17 17/40/17
f 24/33/18 20/41/18 18/42/18 22/35/18
o Cube.003_Cube.004
v -0.971708 0.202524 0.249923
v -0.971708 0.194129 -0.883651
v -1.519076 0.206075 0.249897
v -1.519076 0.197680 -0.883677
v -1.002787 -4.588796 0.285406
v -1.002787 -4.597191 -0.848167
v -1.550154 -4.585245 0.285380
v -1.550155 -4.593640 -0.848193
vt 0.375000 0.000000
vt 0.625000 0.000000
vt 0.625000 0.250000
vt 0.375000 0.250000
vt 0.625000 0.500000
vt 0.375000 0.500000
vt 0.625000 0.750000
vt 0.375000 0.750000
vt 0.625000 1.000000
vt 0.375000 1.000000
vt 0.125000 0.500000
vt 0.125000 0.750000
vt 0.875000 0.500000
vt 0.875000 0.750000
vn 0.0065 1.0000 -0.0074
vn -1.0000 0.0065 -0.0000
vn -0.0065 -1.0000 0.0074
vn 1.0000 -0.0065 0.0000
vn 0.0000 0.0074 1.0000
vn -0.0000 -0.0074 -1.0000
usemtl None
s off
f 25/43/19 26/44/19 28/45/19 27/46/19
f 27/46/20 28/45/20 32/47/20 31/48/20
f 31/48/21 32/47/21 30/49/21 29/50/21
f 29/50/22 30/49/22 26/51/22 25/52/22
f 27/53/23 31/48/23 29/50/23 25/54/23
f 32/47/24 28/55/24 26/56/24 30/49/24
o Cube.004_Cube.005
v -0.452566 3.060060 1.175573
v -0.452566 3.037642 -1.851521
v -0.906683 2.754451 1.177836
v -0.906683 2.732033 -1.849258
v 2.222690 -0.915002 1.205011
v 2.222690 -0.937420 -1.822083
v 1.768573 -1.220610 1.207274
v 1.768573 -1.243028 -1.819820
vt 0.375000 0.000000
vt 0.625000 0.000000
vt 0.625000 0.250000
vt 0.375000 0.250000
vt 0.625000 0.500000
vt 0.375000 0.500000
vt 0.625000 0.750000
vt 0.375000 0.750000
vt 0.625000 1.000000
vt 0.375000 1.000000
vt 0.125000 0.500000
vt 0.125000 0.750000
vt 0.875000 0.500000
vt 0.875000 0.750000
vn -0.5583 0.8296 -0.0061
vn -0.8296 -0.5583 0.0041
vn 0.5583 -0.8296 0.0061
vn 0.8296 0.5583 -0.0041
vn 0.0000 0.0074 1.0000
vn 0.0000 -0.0074 -1.0000
usemtl None
s off
f 33/57/25 34/58/25 36/59/25 35/60/25
f 35/60/26 36/59/26 40/61/26 39/62/26
f 39/62/27 40/61/27 38/63/27 37/64/27
f 37/64/28 38/63/28 34/65/28 33/66/28
f 35/67/29 39/62/29 37/64/29 33/68/29
f 40/61/30 36/69/30 34/70/30 38/63/30
o Cube.005_Cube.006
v 4.708076 3.674942 0.496121
v 4.708076 3.662520 -1.181253
v 4.387768 4.118807 0.492834
v 4.387768 4.106385 -1.184540
v 0.822548 0.871158 0.516887
v 0.822548 0.858736 -1.160487
v 0.502239 1.315023 0.513600
v 0.502239 1.302601 -1.163774
vt 0.375000 0.000000
vt 0.625000 0.000000
vt 0.625000 0.250000
vt 0.375000 0.250000
vt 0.625000 0.500000
vt 0.375000 0.500000
vt 0.625000 0.750000
vt 0.375000 0.750000
vt 0.625000 1.000000
vt 0.375000 1.000000
vt 0.125000 0.500000
vt 0.125000 0.750000
vt 0.875000 0.500000
vt 0.875000 0.750000
vn 0.8109 0.5852 -0.0043
vn -0.5852 0.8109 -0.0060
vn -0.8109 -0.5852 0.0043
vn 0.5852 -0.8109 0.0060
vn 0.0000 0.0074 1.0000
vn -0.0000 -0.0074 -1.0000
usemtl None
s off
f 41/71/31 42/72/31 44/73/31 43/74/31
f 43/74/32 44/73/32 48/75/32 47/76/32
f 47/76/33 48/75/33 46/77/33 45/78/33
f 45/78/34 46/77/34 42/79/34 41/80/34
f 43/81/35 47/76/35 45/78/35 41/82/35
f 48/75/36 44/83/36 42/84/36 46/77/36
o Cube.006_Cube.007
v 4.490824 -0.490735 1.201869
v 4.490823 -0.513153 -1.825225
v 4.058989 -0.154378 1.199378
v 4.058988 -0.176796 -1.827716
v 1.546403 -4.270758 1.229864
v 1.546402 -4.293176 -1.797230
v 1.114567 -3.934401 1.227373
v 1.114567 -3.956819 -1.799721
vt 0.375000 0.000000
vt 0.625000 0.000000
vt 0.625000 0.250000
vt 0.375000 0.250000
vt 0.625000 0.500000
vt 0.375000 0.500000
vt 0.625000 0.750000
vt 0.375000 0.750000
vt 0.625000 1.000000
vt 0.375000 1.000000
vt 0.125000 0.500000
vt 0.125000 0.750000
vt 0.875000 0.500000
vt 0.875000 0.750000
vn 0.6145 0.7889 -0.0058
vn -0.7889 0.6145 -0.0046
vn -0.6145 -0.7889 0.0058
vn 0.7889 -0.6145 0.0046
vn 0.0000 0.0074 1.0000
vn -0.0000 -0.0074 -1.0000
usemtl None
s off
f 49/85/37 50/86/37 52/87/37 51/88/37
f 51/88/38 52/87/38 56/89/38 55/90/38
f 55/90/39 56/89/39 54/91/39 53/92/39
f 53/92/40 54/91/40 50/93/40 49/94/40
f 51/95/41 55/90/41 53/92/41 49/96/41
f 56/89/42 52/97/42 50/98/42 54/91/42
o Cube.007_Cube.008
v -2.058522 -2.680655 1.218087
v -2.058522 -2.703073 -1.809007
v -2.068313 -2.133779 1.214037
v -2.068313 -2.156197 -1.813057
v -5.533082 -2.742858 1.218548
v -5.533082 -2.765276 -1.808546
v -5.542872 -2.195982 1.214498
v -5.542872 -2.218400 -1.812596
vt 0.375000 0.000000
vt 0.625000 0.000000
vt 0.625000 0.250000
vt 0.375000 0.250000
vt 0.625000 0.500000
vt 0.375000 0.500000
vt 0.625000 0.750000
vt 0.375000 0.750000
vt 0.625000 1.000000
vt 0.375000 1.000000
vt 0.125000 0.500000
vt 0.125000 0.750000
vt 0.875000 0.500000
vt 0.875000 0.750000
vn 0.9998 0.0179 -0.0001
vn -0.0179 0.9998 -0.0074
vn -0.9998 -0.0179 0.0001
vn 0.0179 -0.9998 0.0074
vn 0.0000 0.0074 1.0000
vn -0.0000 -0.0074 -1.0000
usemtl None
s off
f 57/99/43 58/100/43 60/101/43 59/102/43
f 59/102/44 60/101/44 64/103/44 63/104/44
f 63/104/45 64/103/45 62/105/45 61/106/45
f 61/106/46 62/105/46 58/107/46 57/108/46
f 59/109/47 63/104/47 61/106/47 57/110/47
f 64/103/48 60/111/48 58/112/48 62/105/48
