# Blender v3.0.0 OBJ File: ''
# www.blender.org
mtllib table.mtl
o Cube_Cube.005
v -0.600000 1.142514 -0.807226
v -0.200000 1.142514 -0.807226
v 0.200000 1.142514 -0.807226
v 0.600000 1.142514 -0.807226
v -0.600000 1.142514 -0.403613
v -0.200000 1.142514 -0.403613
v 0.200000 1.142514 -0.403613
v 0.600000 1.142514 -0.403613
v -0.600000 1.142514 -0.000000
v -0.200000 1.142514 -0.000000
v 0.200000 1.142514 0.000000
v 0.600000 1.142514 0.000000
v -0.600000 1.142514 0.403613
v -0.200000 1.142514 0.403613
v 0.200000 1.142514 0.403613
v 0.600000 1.142514 0.403613
v -0.600000 1.142514 0.807226
v -0.200000 1.142514 0.807226
v 0.200000 1.142514 0.807226
v 0.600000 1.142514 0.807226
v 0.600000 0.927800 -0.000000
v 0.200000 0.927800 -0.000000
v -0.200000 0.927800 0.000000
v -0.600000 0.927800 0.000000
v -0.900000 0.927800 1.089755
v -0.900000 0.938536 1.210839
v -1.000000 0.938536 1.089755
v -1.000000 1.131778 1.089755
v -0.900000 1.131778 1.210839
v -0.900000 1.142514 1.089755
v -1.000000 0.938536 -1.089755
v -0.900000 0.938536 -1.210839
v -0.900000 0.927800 -1.089755
v -0.900000 1.142514 -1.089755
v -0.900000 1.131778 -1.210839
v -1.000000 1.131778 -1.089755
v 1.000000 0.938536 1.089755
v 0.900000 0.938536 1.210839
v 0.900000 0.927800 1.089755
v 0.900000 1.142514 1.089755
v 0.900000 1.131778 1.210839
v 1.000000 1.131778 1.089755
v 0.900000 0.938536 -1.210839
v 1.000000 0.938536 -1.089755
v 0.900000 0.927800 -1.089755
v 0.900000 1.142514 -1.089755
v 1.000000 1.131778 -1.089755
v 0.900000 1.131778 -1.210839
v -0.900000 0.927800 -0.807226
v -1.000000 0.938536 -0.807226
v -0.900000 0.927800 -0.403613
v -1.000000 0.938536 -0.403613
v -0.900000 0.927800 0.000000
v -1.000000 0.938536 0.000000
v -0.900000 0.927800 0.403613
v -1.000000 0.938536 0.403613
v -1.000000 0.938536 0.807226
v -0.900000 0.927800 0.807226
v -0.900000 1.142514 0.807226
v -1.000000 1.131778 0.807226
v -0.900000 1.142514 0.403613
v -1.000000 1.131778 0.403613
v -0.900000 1.142514 -0.000000
v -1.000000 1.131778 -0.000000
v -0.900000 1.142514 -0.403613
v -1.000000 1.131778 -0.403613
v -1.000000 1.131778 -0.807226
v -0.900000 1.142514 -0.807226
v 0.900000 0.927800 0.807226
v 1.000000 0.938536 0.807226
v 0.900000 0.927800 0.403613
v 1.000000 0.938536 0.403613
v 0.900000 0.927800 -0.000000
v 1.000000 0.938536 -0.000000
v 0.900000 0.927800 -0.403613
v 1.000000 0.938536 -0.403613
v 1.000000 0.938536 -0.807226
v 0.900000 0.927800 -0.807226
v 0.900000 1.142514 -0.807226
v 1.000000 1.131778 -0.807226
v 0.900000 1.142514 -0.403613
v 1.000000 1.131778 -0.403613
v 0.900000 1.142514 0.000000
v 1.000000 1.131778 0.000000
v 0.900000 1.142514 0.403613
v 1.000000 1.131778 0.403613
v 1.000000 1.131778 0.807226
v 0.900000 1.142514 0.807226
v 0.600000 0.927800 -1.089755
v 0.600000 0.938536 -1.210839
v 0.200000 0.927800 -1.089755
v 0.200000 0.938536 -1.210839
v -0.200000 0.927800 -1.089755
v -0.200000 0.938536 -1.210839
v -0.600000 0.938536 -1.210839
v -0.600000 0.927800 -1.089755
v -0.600000 1.142514 -1.089755
v -0.600000 1.131778 -1.210839
v -0.200000 1.142514 -1.089755
v -0.200000 1.131778 -1.210839
v 0.200000 1.142514 -1.089755
v 0.200000 1.131778 -1.210839
v 0.600000 1.131778 -1.210839
v 0.600000 1.142514 -1.089755
v -0.600000 0.927800 1.089755
v -0.600000 0.938536 1.210839
v -0.200000 0.927800 1.089755
v -0.200000 0.938536 1.210839
v 0.200000 0.927800 1.089755
v 0.200000 0.938536 1.210839
v 0.600000 0.938536 1.210839
v 0.600000 0.927800 1.089755
v 0.600000 1.142514 1.089755
v 0.600000 1.131778 1.210839
v 0.200000 1.142514 1.089755
v 0.200000 1.131778 1.210839
v -0.200000 1.142514 1.089755
v -0.200000 1.131778 1.210839
v -0.600000 1.131778 1.210839
v -0.600000 1.142514 1.089755
v 0.500000 0.917064 -0.807226
v 0.700000 0.927800 -0.928310
v 0.600000 0.917064 -0.686142
v 0.300000 0.917064 -0.807226
v 0.200000 0.917064 -0.686142
v 0.100000 0.927800 -0.928310
v -0.300000 0.917064 -0.807226
v -0.100000 0.927800 -0.928310
v -0.200000 0.917064 -0.686142
v -0.500000 0.917064 -0.807226
v -0.600000 0.917064 -0.686142
v -0.700000 0.927800 -0.928310
v 0.500000 0.917064 -0.403613
v 0.600000 0.917064 -0.524697
v 0.700000 0.927800 -0.282529
v 0.300000 0.917064 -0.403613
v 0.100000 0.927800 -0.282529
v 0.200000 0.917064 -0.524697
v -0.300000 0.917064 -0.403613
v -0.200000 0.917064 -0.524697
v -0.100000 0.927800 -0.282529
v -0.500000 0.917064 -0.403613
v -0.700000 0.927800 -0.282529
v -0.600000 0.917064 -0.524697
v 0.500000 0.917064 0.403613
v 0.700000 0.927800 0.282529
v 0.600000 0.917064 0.524697
v 0.300000 0.917064 0.403613
v 0.200000 0.917064 0.524697
v 0.100000 0.927800 0.282529
v -0.300000 0.917064 0.403613
v -0.100000 0.927800 0.282529
v -0.200000 0.917064 0.524697
v -0.500000 0.917064 0.403613
v -0.600000 0.917064 0.524697
v -0.700000 0.927800 0.282529
v 0.500000 0.917064 0.807226
v 0.600000 0.917064 0.686142
v 0.700000 0.927800 0.928310
v 0.300000 0.917064 0.807226
v 0.100000 0.927800 0.928310
v 0.200000 0.917064 0.686142
v -0.300000 0.917064 0.807226
v -0.200000 0.917064 0.686142
v -0.100000 0.927800 0.928310
v -0.500000 0.917064 0.807226
v -0.700000 0.927800 0.928310
v -0.600000 0.917064 0.686142
v 0.500000 -0.055861 -0.807226
v 0.600000 -0.055861 -0.686142
v 0.500000 -0.066596 -0.686142
v 0.300000 -0.055861 -0.807226
v 0.300000 -0.066596 -0.686142
v 0.200000 -0.055861 -0.686142
v -0.300000 -0.055861 -0.807226
v -0.200000 -0.055861 -0.686142
v -0.300000 -0.066596 -0.686142
v -0.500000 -0.055861 -0.807226
v -0.500000 -0.066596 -0.686142
v -0.600000 -0.055861 -0.686142
v 0.500000 -0.055861 -0.403613
v 0.500000 -0.066596 -0.524697
v 0.600000 -0.055861 -0.524697
v 0.300000 -0.055861 -0.403613
v 0.200000 -0.055861 -0.524697
v 0.300000 -0.066596 -0.524697
v -0.300000 -0.055861 -0.403613
v -0.300000 -0.066596 -0.524697
v -0.200000 -0.055861 -0.524697
v -0.500000 -0.055861 -0.403613
v -0.600000 -0.055861 -0.524697
v -0.500000 -0.066596 -0.524697
v 0.500000 -0.055861 0.403613
v 0.600000 -0.055861 0.524697
v 0.500000 -0.066596 0.524697
v 0.300000 -0.055861 0.403613
v 0.300000 -0.066596 0.524697
v 0.200000 -0.055861 0.524697
v -0.300000 -0.055861 0.403613
v -0.200000 -0.055861 0.524697
v -0.300000 -0.066596 0.524697
v -0.500000 -0.055861 0.403613
v -0.500000 -0.066596 0.524697
v -0.600000 -0.055861 0.524697
v 0.500000 -0.055861 0.807226
v 0.500000 -0.066596 0.686142
v 0.600000 -0.055861 0.686142
v 0.300000 -0.055861 0.807226
v 0.200000 -0.055861 0.686142
v 0.300000 -0.066596 0.686142
v -0.300000 -0.055861 0.807226
v -0.300000 -0.066596 0.686142
v -0.200000 -0.055861 0.686142
v -0.500000 -0.055861 0.807226
v -0.600000 -0.055861 0.686142
v -0.500000 -0.066596 0.686142
vt 0.825000 0.512500
vt 0.862500 0.512500
vt 0.862500 0.541667
vt 0.825000 0.541667
vt 0.637500 0.512500
vt 0.675000 0.512500
vt 0.675000 0.541667
vt 0.637500 0.541667
vt 0.637500 0.708333
vt 0.675000 0.708333
vt 0.675000 0.737500
vt 0.637500 0.737500
vt 0.825000 0.708333
vt 0.862500 0.708333
vt 0.862500 0.737500
vt 0.825000 0.737500
vt 0.387500 0.708333
vt 0.612500 0.708333
vt 0.612500 0.737500
vt 0.387500 0.737500
vt 0.387500 0.262500
vt 0.612500 0.262500
vt 0.612500 0.300000
vt 0.387500 0.300000
vt 0.387500 0.762500
vt 0.612500 0.762500
vt 0.612500 0.800000
vt 0.387500 0.800000
vt 0.387500 0.666667
vt 0.612500 0.666667
vt 0.862500 0.583333
vt 0.825000 0.583333
vt 0.862500 0.625000
vt 0.825000 0.625000
vt 0.862500 0.666667
vt 0.825000 0.666667
vt 0.387500 0.450000
vt 0.612500 0.450000
vt 0.612500 0.487500
vt 0.387500 0.487500
vt 0.675000 0.583333
vt 0.637500 0.583333
vt 0.387500 0.541667
vt 0.612500 0.541667
vt 0.612500 0.583333
vt 0.387500 0.583333
vt 0.612500 0.625000
vt 0.387500 0.625000
vt 0.325000 0.512500
vt 0.362500 0.512500
vt 0.362500 0.541667
vt 0.337500 0.529167
vt 0.362500 0.583333
vt 0.337500 0.595833
vt 0.362500 0.625000
vt 0.325000 0.625000
vt 0.362500 0.666667
vt 0.337500 0.654167
vt 0.362500 0.708333
vt 0.337500 0.720833
vt 0.387500 0.950000
vt 0.612500 0.950000
vt 0.612500 0.987500
vt 0.387500 0.987500
vt 0.137500 0.666667
vt 0.162500 0.654167
vt 0.162500 0.720833
vt 0.137500 0.708333
vt 0.137500 0.625000
vt 0.175000 0.625000
vt 0.137500 0.583333
vt 0.162500 0.595833
vt 0.387500 0.041667
vt 0.612500 0.041667
vt 0.612500 0.083333
vt 0.387500 0.083333
vt 0.175000 0.695833
vt 0.175000 0.679167
vt 0.175000 0.679167
vt 0.175000 0.695833
vt 0.275000 0.695833
vt 0.275000 0.679167
vt 0.275000 0.679167
vt 0.275000 0.695833
vt 0.225000 0.625000
vt 0.237500 0.654167
vt 0.612500 0.125000
vt 0.387500 0.125000
vt 0.225000 0.679167
vt 0.225000 0.695833
vt 0.225000 0.695833
vt 0.225000 0.679167
vt 0.262500 0.654167
vt 0.262500 0.720833
vt 0.237500 0.720833
vt 0.325000 0.679167
vt 0.325000 0.695833
vt 0.325000 0.695833
vt 0.325000 0.679167
vt 0.612500 0.166667
vt 0.387500 0.166667
vt 0.287500 0.666667
vt 0.312500 0.666667
vt 0.312500 0.666667
vt 0.287500 0.666667
vt 0.212500 0.583333
vt 0.187500 0.583333
vt 0.187500 0.583333
vt 0.212500 0.583333
vt 0.237500 0.595833
vt 0.262500 0.595833
vt 0.275000 0.625000
vt 0.612500 0.208333
vt 0.387500 0.208333
vt 0.275000 0.570833
vt 0.275000 0.554167
vt 0.275000 0.554167
vt 0.275000 0.570833
vt 0.187500 0.666667
vt 0.212500 0.666667
vt 0.212500 0.666667
vt 0.187500 0.666667
vt 0.612500 0.237500
vt 0.387500 0.237500
vt 0.775000 0.512500
vt 0.775000 0.541667
vt 0.612500 0.350000
vt 0.387500 0.350000
vt 0.612500 0.400000
vt 0.387500 0.400000
vt 0.675000 0.666667
vt 0.725000 0.666667
vt 0.725000 0.708333
vt 0.775000 0.666667
vt 0.775000 0.708333
vt 0.637500 0.666667
vt 0.675000 0.625000
vt 0.725000 0.625000
vt 0.775000 0.625000
vt 0.637500 0.625000
vt 0.725000 0.583333
vt 0.775000 0.583333
vt 0.725000 0.541667
vt 0.137500 0.541667
vt 0.162500 0.529167
vt 0.387500 0.900000
vt 0.612500 0.900000
vt 0.725000 0.512500
vt 0.387500 0.512500
vt 0.612500 0.512500
vt 0.775000 0.737500
vt 0.725000 0.737500
vt 0.287500 0.541667
vt 0.312500 0.541667
vt 0.312500 0.541667
vt 0.287500 0.541667
vt 0.387500 0.012500
vt 0.612500 0.012500
vt 0.387500 0.850000
vt 0.612500 0.850000
vt 0.362500 0.737500
vt 0.325000 0.737500
vt 0.275000 0.737500
vt 0.225000 0.737500
vt 0.175000 0.737500
vt 0.137500 0.512500
vt 0.175000 0.512500
vt 0.225000 0.512500
vt 0.237500 0.529167
vt 0.275000 0.512500
vt 0.262500 0.529167
vt 0.187500 0.679167
vt 0.212500 0.679167
vt 0.212500 0.695833
vt 0.187500 0.695833
vt 0.287500 0.679167
vt 0.312500 0.679167
vt 0.312500 0.695833
vt 0.287500 0.695833
vt 0.187500 0.554167
vt 0.212500 0.554167
vt 0.212500 0.570833
vt 0.187500 0.570833
vt 0.325000 0.554167
vt 0.325000 0.570833
vt 0.325000 0.570833
vt 0.325000 0.554167
vt 0.212500 0.708333
vt 0.187500 0.708333
vt 0.187500 0.708333
vt 0.212500 0.708333
vt 0.312500 0.583333
vt 0.287500 0.583333
vt 0.287500 0.583333
vt 0.312500 0.583333
vt 0.225000 0.554167
vt 0.225000 0.570833
vt 0.225000 0.570833
vt 0.225000 0.554167
vt 0.175000 0.570833
vt 0.175000 0.554167
vt 0.175000 0.554167
vt 0.175000 0.570833
vt 0.287500 0.554167
vt 0.312500 0.554167
vt 0.312500 0.570833
vt 0.287500 0.570833
vt 0.187500 0.541667
vt 0.212500 0.541667
vt 0.212500 0.541667
vt 0.187500 0.541667
vt 0.312500 0.708333
vt 0.287500 0.708333
vt 0.287500 0.708333
vt 0.312500 0.708333
vt 0.137500 0.737500
vt 0.137500 0.750000
vt 0.125000 0.737500
vt 0.612500 0.000000
vt 0.625000 0.012500
vt 0.387500 0.250000
vt 0.375000 0.237500
vt 0.625000 0.262500
vt 0.625000 0.262500
vt 0.612500 0.250000
vt 0.387500 0.750000
vt 0.375000 0.762500
vt 0.375000 0.762500
vt 0.625000 0.762500
vt 0.625000 0.762500
vt 0.612500 0.750000
vt 0.387500 0.500000
vt 0.375000 0.487500
vt 0.625000 0.512500
vt 0.625000 0.512500
vt 0.612500 0.500000
vt 0.125000 0.708333
vt 0.387500 0.000000
vt 0.625000 0.208333
vt 0.625000 0.237500
vt 0.137500 0.500000
vt 0.175000 0.500000
vt 0.625000 0.450000
vt 0.625000 0.487500
vt 0.362500 0.750000
vt 0.325000 0.750000
vt 0.625000 0.950000
vt 0.625000 0.987500
vt 0.125000 0.541667
vt 0.125000 0.512500
vt 0.125000 0.583333
vt 0.125000 0.625000
vt 0.125000 0.666667
vt 0.625000 0.041667
vt 0.625000 0.083333
vt 0.625000 0.125000
vt 0.625000 0.166667
vt 0.325000 0.500000
vt 0.362500 0.500000
vt 0.275000 0.500000
vt 0.225000 0.500000
vt 0.625000 0.300000
vt 0.625000 0.350000
vt 0.625000 0.400000
vt 0.175000 0.750000
vt 0.225000 0.750000
vt 0.275000 0.750000
vt 0.625000 0.800000
vt 0.625000 0.850000
vt 0.625000 0.900000
vn 0.0000 1.0000 0.0000
vn 1.0000 0.0000 0.0000
vn 0.0000 0.0000 -1.0000
vn 0.0000 0.0000 1.0000
vn 0.0000 -1.0000 0.0000
vn -1.0000 0.0000 0.0000
vn -0.1063 -0.9904 0.0878
vn -0.1063 0.9904 0.0878
vn -0.1063 -0.9904 -0.0878
vn -0.1063 0.9904 -0.0878
vn 0.1063 -0.9904 0.0878
vn 0.1063 0.9904 0.0878
vn 0.1063 -0.9904 -0.0878
vn 0.1063 0.9904 -0.0878
vn 0.0357 -0.9989 -0.0295
vn -0.0357 -0.9989 -0.0295
vn 0.0357 -0.9989 0.0295
vn -0.0357 -0.9989 0.0295
vn -0.1067 -0.9943 0.0000
vn -0.7710 0.0000 0.6368
vn -0.1067 0.9943 0.0000
vn -0.7710 0.0000 -0.6368
vn 0.0000 -0.9961 -0.0883
vn 0.0000 0.9961 -0.0883
vn 0.7710 0.0000 -0.6368
vn 0.1067 -0.9943 0.0000
vn 0.1067 0.9943 0.0000
vn 0.7710 0.0000 0.6368
vn 0.0000 -0.9961 0.0883
vn 0.0000 0.9961 0.0883
usemtl None
s off
f 97/1/1 34/2/1 68/3/1 1/4/1
f 46/5/1 104/6/1 4/7/1 79/8/1
f 88/9/1 20/10/1 113/11/1 40/12/1
f 17/13/1 59/14/1 30/15/1 120/16/1
f 70/17/2 87/18/2 42/19/2 37/20/2
f 32/21/3 35/22/3 98/23/3 95/24/3
f 38/25/4 41/26/4 114/27/4 111/28/4
f 72/29/2 86/30/2 87/18/2 70/17/2
f 1/4/1 68/3/1 65/31/1 5/32/1
f 5/32/1 65/31/1 63/33/1 9/34/1
f 9/34/1 63/33/1 61/35/1 13/36/1
f 90/37/3 103/38/3 48/39/3 43/40/3
f 79/8/1 4/7/1 8/41/1 81/42/1
f 77/43/2 80/44/2 82/45/2 76/46/2
f 76/46/2 82/45/2 84/47/2 74/48/2
f 74/48/2 84/47/2 86/30/2 72/29/2
f 89/49/5 45/50/5 78/51/5 122/52/5
f 122/52/5 78/51/5 75/53/5 135/54/5
f 135/54/5 75/53/5 73/55/5 21/56/5
f 21/56/5 73/55/5 71/57/5 146/58/5
f 146/58/5 71/57/5 69/59/5 159/60/5
f 106/61/4 119/62/4 29/63/4 26/64/4
f 13/36/1 61/35/1 59/14/1 17/13/1
f 55/65/5 156/66/5 167/67/5 58/68/5
f 53/69/5 24/70/5 156/66/5 55/65/5
f 51/71/5 143/72/5 24/70/5 53/69/5
f 57/73/6 60/74/6 62/75/6 56/76/6
f 168/77/6 155/78/6 204/79/6 215/80/6
f 162/81/6 149/82/6 198/83/6 209/84/6
f 24/70/5 23/85/5 152/86/5 156/66/5
f 56/76/6 62/75/6 64/87/6 54/88/6
f 153/89/2 164/90/2 213/91/2 200/92/2
f 152/86/5 150/93/5 161/94/5 165/95/5
f 147/96/2 158/97/2 207/98/2 194/99/2
f 54/88/6 64/87/6 66/100/6 52/101/6
f 148/102/3 145/103/3 193/104/3 196/105/3
f 139/106/4 142/107/4 190/108/4 187/109/4
f 141/110/5 137/111/5 22/112/5 23/85/5
f 52/101/6 66/100/6 67/113/6 50/114/6
f 143/72/5 141/110/5 23/85/5 24/70/5
f 138/115/6 125/116/6 174/117/6 185/118/6
f 154/119/3 151/120/3 199/121/3 202/122/3
f 50/114/6 67/113/6 36/123/6 31/124/6
f 99/125/1 97/1/1 1/4/1 2/126/1
f 95/24/3 98/23/3 100/127/3 94/128/3
f 94/128/3 100/127/3 102/129/3 92/130/3
f 92/130/3 102/129/3 103/38/3 90/37/3
f 16/131/1 15/132/1 19/133/1 20/10/1
f 15/132/1 14/134/1 18/135/1 19/133/1
f 14/134/1 13/36/1 17/13/1 18/135/1
f 85/136/1 16/131/1 20/10/1 88/9/1
f 12/137/1 11/138/1 15/132/1 16/131/1
f 11/138/1 10/139/1 14/134/1 15/132/1
f 10/139/1 9/34/1 13/36/1 14/134/1
f 83/140/1 12/137/1 16/131/1 85/136/1
f 8/41/1 7/141/1 11/138/1 12/137/1
f 7/141/1 6/142/1 10/139/1 11/138/1
f 6/142/1 5/32/1 9/34/1 10/139/1
f 81/42/1 8/41/1 12/137/1 83/140/1
f 4/7/1 3/143/1 7/141/1 8/41/1
f 3/143/1 2/126/1 6/142/1 7/141/1
f 2/126/1 1/4/1 5/32/1 6/142/1
f 49/144/5 132/145/5 143/72/5 51/71/5
f 108/146/4 118/147/4 119/62/4 106/61/4
f 104/6/1 101/148/1 3/143/1 4/7/1
f 101/148/1 99/125/1 2/126/1 3/143/1
f 44/149/2 47/150/2 80/44/2 77/43/2
f 19/133/1 18/135/1 117/151/1 115/152/1
f 18/135/1 17/13/1 120/16/1 117/151/1
f 124/153/3 121/154/3 169/155/3 172/156/3
f 27/157/6 28/158/6 60/74/6 57/73/6
f 110/159/4 116/160/4 118/147/4 108/146/4
f 111/28/4 114/27/4 116/160/4 110/159/4
f 20/10/1 19/133/1 115/152/1 113/11/1
f 159/60/5 69/59/5 39/161/5 112/162/5
f 161/94/5 159/60/5 112/162/5 109/163/5
f 165/95/5 161/94/5 109/163/5 107/164/5
f 167/67/5 165/95/5 107/164/5 105/165/5
f 33/166/5 96/167/5 132/145/5 49/144/5
f 96/167/5 93/168/5 128/169/5 132/145/5
f 93/168/5 91/170/5 126/171/5 128/169/5
f 91/170/5 89/49/5 122/52/5 126/171/5
f 203/172/5 201/173/5 212/174/5 216/175/5
f 197/176/5 195/177/5 206/178/5 210/179/5
f 179/180/5 177/181/5 188/182/5 192/183/5
f 23/85/5 22/112/5 150/93/5 152/86/5
f 123/184/2 134/185/2 183/186/2 170/187/2
f 163/188/4 166/189/4 214/190/4 211/191/4
f 133/192/4 136/193/4 184/194/4 181/195/4
f 129/196/2 140/197/2 189/198/2 176/199/2
f 144/200/6 131/201/6 180/202/6 191/203/6
f 173/204/5 171/205/5 182/206/5 186/207/5
f 130/208/3 127/209/3 175/210/3 178/211/3
f 137/111/5 135/54/5 21/56/5 22/112/5
f 157/212/4 160/213/4 208/214/4 205/215/4
f 128/169/5 126/171/5 137/111/5 141/110/5
f 22/112/5 21/56/5 146/58/5 150/93/5
f 25/216/7 26/217/7 27/218/7
f 28/158/8 29/219/8 30/220/8
f 31/124/9 32/221/9 33/222/9
f 34/223/10 35/224/10 36/225/10
f 37/226/11 38/227/11 39/228/11
f 40/229/12 41/230/12 42/231/12
f 43/40/13 44/232/13 45/233/13
f 46/234/14 47/235/14 48/236/14
f 121/154/15 122/52/15 123/184/15
f 124/153/16 125/116/16 126/171/16
f 127/209/15 128/169/15 129/196/15
f 130/208/16 131/201/16 132/145/16
f 133/192/17 134/185/17 135/54/17
f 136/193/18 137/111/18 138/115/18
f 139/106/17 140/197/17 141/110/17
f 142/107/18 143/72/18 144/200/18
f 145/103/15 146/58/15 147/96/15
f 148/102/16 149/82/16 150/93/16
f 151/120/15 152/86/15 153/89/15
f 154/119/16 155/78/16 156/66/16
f 157/212/17 158/97/17 159/60/17
f 160/213/18 161/94/18 162/81/18
f 163/188/17 164/90/17 165/95/17
f 166/189/18 167/67/18 168/77/18
f 169/155/13 170/187/13 171/205/13
f 172/156/9 173/204/9 174/117/9
f 175/210/13 176/199/13 177/181/13
f 178/211/9 179/180/9 180/202/9
f 181/195/11 182/206/11 183/186/11
f 184/194/7 185/118/7 186/207/7
f 187/109/11 188/182/11 189/198/11
f 190/108/7 191/203/7 192/183/7
f 193/104/13 194/99/13 195/177/13
f 196/105/9 197/176/9 198/83/9
f 199/121/13 200/92/13 201/173/13
f 202/122/9 203/172/9 204/79/9
f 205/215/11 206/178/11 207/98/11
f 208/214/7 209/84/7 210/179/7
f 211/191/11 212/174/11 213/91/11
f 214/190/7 215/80/7 216/175/7
f 58/68/19 25/216/19 27/218/19 57/237/19
f 26/238/20 29/219/20 28/158/20 27/157/20
f 68/239/21 34/240/21 36/123/21 67/113/21
f 35/22/22 32/21/22 31/124/22 36/123/22
f 96/167/23 33/166/23 32/241/23 95/242/23
f 104/243/24 46/244/24 48/39/24 103/38/24
f 47/150/25 44/149/25 43/40/25 48/39/25
f 78/51/26 45/50/26 44/149/26 77/43/26
f 88/9/27 40/12/27 42/19/27 87/18/27
f 41/26/28 38/25/28 37/20/28 42/19/28
f 112/162/29 39/161/29 38/245/29 111/246/29
f 120/247/30 30/248/30 29/63/30 119/62/30
f 33/166/19 49/144/19 50/249/19 31/250/19
f 49/144/19 51/71/19 52/251/19 50/249/19
f 51/71/19 53/69/19 54/252/19 52/251/19
f 53/69/19 55/65/19 56/253/19 54/252/19
f 55/65/19 58/68/19 57/237/19 56/253/19
f 30/220/21 59/254/21 60/74/21 28/158/21
f 59/254/21 61/255/21 62/75/21 60/74/21
f 61/255/21 63/256/21 64/87/21 62/75/21
f 63/256/21 65/257/21 66/100/21 64/87/21
f 65/257/21 68/239/21 67/113/21 66/100/21
f 39/161/26 69/59/26 70/17/26 37/20/26
f 69/59/26 71/57/26 72/29/26 70/17/26
f 71/57/26 73/55/26 74/48/26 72/29/26
f 73/55/26 75/53/26 76/46/26 74/48/26
f 75/53/26 78/51/26 77/43/26 76/46/26
f 46/5/27 79/8/27 80/44/27 47/150/27
f 79/8/27 81/42/27 82/45/27 80/44/27
f 81/42/27 83/140/27 84/47/27 82/45/27
f 83/140/27 85/136/27 86/30/27 84/47/27
f 85/136/27 88/9/27 87/18/27 86/30/27
f 45/50/23 89/49/23 90/258/23 43/259/23
f 89/49/23 91/170/23 92/260/23 90/258/23
f 91/170/23 93/168/23 94/261/23 92/260/23
f 93/168/23 96/167/23 95/242/23 94/261/23
f 34/223/24 97/262/24 98/23/24 35/22/24
f 97/262/24 99/263/24 100/127/24 98/23/24
f 99/263/24 101/264/24 102/129/24 100/127/24
f 101/264/24 104/243/24 103/38/24 102/129/24
f 25/216/29 105/165/29 106/265/29 26/217/29
f 105/165/29 107/164/29 108/266/29 106/265/29
f 107/164/29 109/163/29 110/267/29 108/266/29
f 109/163/29 112/162/29 111/246/29 110/267/29
f 40/229/30 113/268/30 114/27/30 41/26/30
f 113/268/30 115/269/30 116/160/30 114/27/30
f 115/269/30 117/270/30 118/147/30 116/160/30
f 117/270/30 120/247/30 119/62/30 118/147/30
f 121/154/23 124/153/23 126/171/23 122/52/23
f 127/209/23 130/208/23 132/145/23 128/169/23
f 135/54/29 137/111/29 136/193/29 133/192/29
f 141/110/29 143/72/29 142/107/29 139/106/29
f 145/103/23 148/102/23 150/93/23 146/58/23
f 151/120/23 154/119/23 156/66/23 152/86/23
f 159/60/29 161/94/29 160/213/29 157/212/29
f 165/95/29 167/67/29 166/189/29 163/188/29
f 155/78/19 168/77/19 167/67/19 156/66/19
f 152/86/26 165/95/26 164/90/26 153/89/26
f 149/82/19 162/81/19 161/94/19 150/93/19
f 146/58/26 159/60/26 158/97/26 147/96/26
f 131/201/19 144/200/19 143/72/19 132/145/19
f 128/169/26 141/110/26 140/197/26 129/196/26
f 125/116/19 138/115/19 137/111/19 126/171/19
f 122/52/26 135/54/26 134/185/26 123/184/26
f 171/205/23 173/204/23 172/156/23 169/155/23
f 177/181/23 179/180/23 178/211/23 175/210/23
f 181/195/29 184/194/29 186/207/29 182/206/29
f 187/109/29 190/108/29 192/183/29 188/182/29
f 195/177/23 197/176/23 196/105/23 193/104/23
f 201/173/23 203/172/23 202/122/23 199/121/23
f 205/215/29 208/214/29 210/179/29 206/178/29
f 211/191/29 214/190/29 216/175/29 212/174/29
f 203/172/19 216/175/19 215/80/19 204/79/19
f 200/92/26 213/91/26 212/174/26 201/173/26
f 197/176/19 210/179/19 209/84/19 198/83/19
f 194/99/26 207/98/26 206/178/26 195/177/26
f 179/180/19 192/183/19 191/203/19 180/202/19
f 176/199/26 189/198/26 188/182/26 177/181/26
f 173/204/19 186/207/19 185/118/19 174/117/19
f 170/187/26 183/186/26 182/206/26 171/205/26
f 163/188/28 211/191/28 213/91/28 164/90/28
f 199/121/25 151/120/25 153/89/25 200/92/25
f 144/200/20 191/203/20 190/108/20 142/107/20
f 189/198/28 140/197/28 139/106/28 187/109/28
f 148/102/22 196/105/22 198/83/22 149/82/22
f 208/214/20 160/213/20 162/81/20 209/84/20
f 204/79/22 155/78/22 154/119/22 202/122/22
f 157/212/28 205/215/28 207/98/28 158/97/28
f 193/104/25 145/103/25 147/96/25 194/99/25
f 123/184/25 170/187/25 169/155/25 121/154/25
f 174/117/22 125/116/22 124/153/22 172/156/22
f 130/208/22 178/211/22 180/202/22 131/201/22
f 129/196/25 176/199/25 175/210/25 127/209/25
f 168/77/20 215/80/20 214/190/20 166/189/20
f 184/194/20 136/193/20 138/115/20 185/118/20
f 183/186/28 134/185/28 133/192/28 181/195/28
f 58/68/5 167/67/5 105/165/5 25/216/5
